<?xml version="1.0" encoding="UTF-8" standalone="no"?>
<!-- Created with Inkscape (http://www.inkscape.org/) -->

<svg
   xmlns:dc="http://purl.org/dc/elements/1.1/"
   xmlns:cc="http://creativecommons.org/ns#"
   xmlns:rdf="http://www.w3.org/1999/02/22-rdf-syntax-ns#"
   xmlns:svg="http://www.w3.org/2000/svg"
   xmlns="http://www.w3.org/2000/svg"
   xmlns:sodipodi="http://sodipodi.sourceforge.net/DTD/sodipodi-0.dtd"
   xmlns:inkscape="http://www.inkscape.org/namespaces/inkscape"
   width="64"
   height="64"
   id="svg2931"
   version="1.1"
   inkscape:version="0.47 r22583"
   sodipodi:docname="w2c-icon.svg"
   inkscape:export-filename="/home/samu/projects/web2py_cms/artwork/w2c-icon.png"
   inkscape:export-xdpi="90"
   inkscape:export-ydpi="90">
  <defs
     id="defs2933">
    <inkscape:perspective
       sodipodi:type="inkscape:persp3d"
       inkscape:vp_x="0 : 526.18109 : 1"
       inkscape:vp_y="0 : 1000 : 0"
       inkscape:vp_z="744.09448 : 526.18109 : 1"
       inkscape:persp3d-origin="372.04724 : 350.78739 : 1"
       id="perspective2939" />
    <inkscape:perspective
       id="perspective2969"
       inkscape:persp3d-origin="0.5 : 0.33333333 : 1"
       inkscape:vp_z="1 : 0.5 : 1"
       inkscape:vp_y="0 : 1000 : 0"
       inkscape:vp_x="0 : 0.5 : 1"
       sodipodi:type="inkscape:persp3d" />
  </defs>
  <sodipodi:namedview
     id="base"
     pagecolor="#ffffff"
     bordercolor="#666666"
     borderopacity="1.0"
     inkscape:pageopacity="0.0"
     inkscape:pageshadow="2"
     inkscape:zoom="0.25"
     inkscape:cx="-623.53099"
     inkscape:cy="715.74013"
     inkscape:document-units="px"
     inkscape:current-layer="layer1"
     showgrid="false"
     inkscape:window-width="1320"
     inkscape:window-height="866"
     inkscape:window-x="34"
     inkscape:window-y="79"
     inkscape:window-maximized="0" />
  <metadata
     id="metadata2936">
    <rdf:RDF>
      <cc:Work
         rdf:about="">
        <dc:format>image/svg+xml</dc:format>
        <dc:type
           rdf:resource="http://purl.org/dc/dcmitype/StillImage" />
        <dc:title></dc:title>
      </cc:Work>
    </rdf:RDF>
  </metadata>
  <g
     inkscape:label="Layer 1"
     inkscape:groupmode="layer"
     id="layer1"
     transform="translate(0,-988.36218)">
    <path
       style="font-size:67.44394683999999529px;font-style:normal;font-variant:normal;font-weight:normal;font-stretch:normal;text-align:start;line-height:125%;letter-spacing:-5.20164204000000030px;writing-mode:lr-tb;text-anchor:start;fill:#000000;fill-opacity:1;stroke:none;font-family:Doulos SIL;-inkscape-font-specification:Doulos SIL"
       d="m 48.712316,991.5622 c -0.724941,0 -1.349576,0.0933 -1.907967,0.28909 -0.548606,0.19591 -1.033981,0.45725 -1.445429,0.78053 -0.401658,0.31349 -0.7375,0.66801 -1.0118,1.06962 -0.274303,0.40161 -0.517475,0.79287 -0.693806,1.21416 -0.176341,0.41128 -0.287643,0.84134 -0.375812,1.24307 -0.08817,0.39195 -0.163193,0.71798 -0.20236,1.0118 l 0.520354,0 c 0.09796,-0.27427 0.256809,-0.60072 0.462538,-0.98289 0.205721,-0.39173 0.466563,-0.74581 0.80944,-1.09853 0.352667,-0.35261 0.772357,-0.65123 1.271978,-0.89617 0.509409,-0.24492 1.115891,-0.37569 1.821241,-0.37581 0.313481,1.2e-4 0.68659,0.0652 1.127435,0.20236 0.45063,0.12736 0.889423,0.36076 1.300886,0.69381 0.421232,0.33316 0.775717,0.77148 1.069618,1.32979 0.293883,0.55842 0.462529,1.25809 0.462537,2.11033 -8e-6,1.62625 -0.728558,3.44564 -2.139235,5.46374 -0.70535,1.0285 -1.666309,2.1956 -2.890859,3.469 -1.214759,1.2736 -2.669934,2.7012 -4.394105,4.2785 l 0,0.5492 11.736886,0 1.416521,-3.8159 -0.549263,0 c -0.225332,0.3233 -0.440073,0.575 -0.635989,0.7805 -0.186141,0.2058 -0.42883,0.3737 -0.722715,0.4915 -0.284105,0.1176 -0.647899,0.2121 -1.098526,0.2602 -0.450642,0.041 -1.066924,0.058 -1.821241,0.058 l -5.203546,0 c 0.303688,-0.2842 0.835643,-0.8255 1.589973,-1.6189 0.754321,-0.7935 1.75302,-1.8475 2.977584,-3.1799 0.411443,-0.4505 0.839964,-0.9924 1.329795,-1.59 0.499606,-0.6074 0.966355,-1.2602 1.387612,-1.9658 0.431032,-0.7052 0.785507,-1.43281 1.069618,-2.19705 0.293881,-0.7739 0.433615,-1.5578 0.433629,-2.34159 -1.4e-5,-0.81312 -0.15838,-1.55039 -0.491446,-2.19706 -0.323294,-0.65632 -0.762091,-1.19716 -1.300887,-1.64778 -0.529015,-0.45063 -1.135496,-0.80568 -1.821241,-1.04071 -0.685759,-0.24505 -1.376082,-0.34691 -2.081418,-0.34691 z"
       id="path3828" />
    <path
       style="font-size:67.44394683999999529px;font-style:normal;font-variant:normal;font-weight:normal;font-stretch:normal;text-align:start;line-height:125%;letter-spacing:-5.20164204000000030px;writing-mode:lr-tb;text-anchor:start;fill:#008000;fill-opacity:1;stroke:none;font-family:Doulos SIL;-inkscape-font-specification:Doulos SIL"
       d="m 2.9500233,999.19407 0,1.09853 c 0.6091438,0.1179 1.1380245,0.2659 1.5899723,0.4625 0.4519431,0.1964 0.7956495,0.4478 1.0118005,0.7227 0.2947436,0.2555 0.5921563,0.5983 0.8672576,1.0697 0.2750933,0.4716 0.5435972,1.0941 0.838349,1.8212 l 8.7014843,22.7222 1.127435,0 7.805319,-17.3452 6.7357,17.3452 1.24307,0 8.99057,-23.3871 c 0.825254,-2.0437 2.124875,-3.1755 3.873751,-3.4112 l 0,-1.09853 -8.556942,0 0,1.09853 c 0.628757,0 1.129867,0.057 1.503247,0.1734 0.373315,0.098 0.670725,0.2278 0.867257,0.4048 0.196459,0.1572 0.316838,0.3437 0.375812,0.5203 0.05888,0.1573 0.08669,0.2881 0.08673,0.4047 -3.7e-5,0.6091 -0.203728,1.4728 -0.635989,2.5729 l -5.608266,14.8301 -6.157529,-15.495 c -0.137572,-0.2359 -0.22089,-0.4765 -0.260177,-0.7516 -0.01969,-0.2752 -0.01041,-0.5539 0.02891,-0.8095 0.05893,-0.2553 0.132992,-0.4683 0.231269,-0.6649 0.09822,-0.2161 0.200071,-0.4019 0.317994,-0.5203 0.294716,-0.2161 0.693978,-0.3648 1.185252,-0.4625 0.491217,-0.098 1.094173,-0.1636 1.821241,-0.2024 l 0,-1.09853 -12.864321,0 0,1.09853 c 1.159323,0.059 1.97636,0.207 2.428321,0.4625 0.766324,0.452 1.378535,1.269 1.85015,2.4284 l 1.532155,4.0182 -5.810626,12.662 -5.810626,-15.495 c -0.353706,-0.9235 -0.549273,-1.6757 -0.549263,-2.226 0.01964,-0.5504 0.215206,-0.9956 0.549263,-1.3297 0.353686,-0.295 1.039967,-0.4615 2.081418,-0.5204 l 0,-1.09853 -11.3899827,0 z"
       id="path3826" />
    <path
       style="font-size:67.44394684px;font-style:normal;font-variant:normal;font-weight:normal;font-stretch:normal;text-align:start;line-height:125%;letter-spacing:-5.20164204px;writing-mode:lr-tb;text-anchor:start;fill:#00ff00;fill-opacity:1;stroke:none;font-family:Doulos SIL;-inkscape-font-specification:Doulos SIL"
       d="m 49.059219,1016.1634 c -2.002753,0 -3.92369,0.3978 -5.7239,1.1853 -1.777725,0.7878 -3.333046,1.9132 -4.683191,3.3534 -1.32767,1.4177 -2.392352,3.1495 -3.179945,5.1746 -0.78759,2.0028 -1.185252,4.2251 -1.185252,6.6779 0,2.4977 0.336717,4.7393 1.011801,6.7646 0.697578,2.0253 1.669307,3.7634 2.86195,5.2035 1.192636,1.4178 2.565138,2.5371 4.162837,3.3245 1.597678,0.7653 3.322991,1.1275 5.145728,1.1275 1.530161,0 3.005317,-0.2951 4.423014,-0.9251 1.41765,-0.63 2.697187,-1.5058 3.844842,-2.6307 1.170117,-1.1253 2.167455,-2.4656 2.977584,-4.0183 0.810064,-1.5752 1.355233,-3.3071 1.64779,-5.1746 l -0.925075,-0.5204 c -0.675103,1.5979 -1.367757,2.9254 -2.110327,3.9605 -0.720117,1.0129 -1.467299,1.8142 -2.25487,2.3994 -0.787611,0.5851 -1.637463,0.9892 -2.515047,1.2142 -0.855119,0.2036 -1.743398,0.318 -2.688498,0.318 -1.620205,0 -3.069745,-0.3913 -4.30738,-1.1564 -1.237657,-0.765 -2.26705,-1.7816 -3.122127,-3.0643 -0.855119,-1.3052 -1.515742,-2.822 -1.965784,-4.5097 -0.427561,-1.6876 -0.635999,-3.4385 -0.635989,-5.2614 -1e-5,-1.5975 0.189213,-3.0793 0.549263,-4.4519 0.360033,-1.3728 0.892394,-2.5654 1.589972,-3.5558 0.697579,-1.0125 1.531328,-1.779 2.543956,-2.3416 1.012608,-0.5851 2.157457,-0.896 3.440122,-0.8961 1.552668,10e-5 2.691119,0.3912 3.411213,1.1563 0.742579,0.7425 1.188355,1.7335 1.300887,2.9487 0.06748,0.9227 0.221395,1.6279 0.491446,2.1681 0.270006,0.5175 0.593909,0.9153 0.953983,1.1853 0.382516,0.2475 0.780187,0.4239 1.185252,0.4914 0.405031,0.071 0.760967,0.087 1.098526,0.087 1.057598,0 1.852913,-0.276 2.370504,-0.8384 0.540037,-0.5624 0.80941,-1.2358 0.809441,-2.0236 -3.1e-5,-0.855 -0.263004,-1.7113 -0.780532,-2.544 -0.517596,-0.8325 -1.258364,-1.6406 -2.225961,-2.4283 -1.935257,-1.5978 -4.433378,-2.3994 -7.516233,-2.3994 z"
       id="path2829" />
  </g>
</svg>
