<?xml version="1.0" encoding="UTF-8" standalone="no"?>
<!-- Created with Inkscape (http://www.inkscape.org/) -->

<svg
   xmlns:dc="http://purl.org/dc/elements/1.1/"
   xmlns:cc="http://creativecommons.org/ns#"
   xmlns:rdf="http://www.w3.org/1999/02/22-rdf-syntax-ns#"
   xmlns:svg="http://www.w3.org/2000/svg"
   xmlns="http://www.w3.org/2000/svg"
   xmlns:xlink="http://www.w3.org/1999/xlink"
   xmlns:sodipodi="http://sodipodi.sourceforge.net/DTD/sodipodi-0.dtd"
   xmlns:inkscape="http://www.inkscape.org/namespaces/inkscape"
   width="230"
   height="70"
   id="svg2"
   version="1.1"
   inkscape:version="0.47 r22583"
   sodipodi:docname="web2cms-logo-3.svg"
   inkscape:export-filename="/home/samu/projects/web2py_cms/artwork/web2cms-logo-3.png"
   inkscape:export-xdpi="90"
   inkscape:export-ydpi="90">
  <defs
     id="defs4">
    <linearGradient
       inkscape:collect="always"
       id="linearGradient4692">
      <stop
         style="stop-color:#ffffff;stop-opacity:1;"
         offset="0"
         id="stop4694" />
      <stop
         style="stop-color:#ffffff;stop-opacity:0;"
         offset="1"
         id="stop4696" />
    </linearGradient>
    <inkscape:perspective
       sodipodi:type="inkscape:persp3d"
       inkscape:vp_x="0 : 526.18109 : 1"
       inkscape:vp_y="0 : 1000 : 0"
       inkscape:vp_z="744.09448 : 526.18109 : 1"
       inkscape:persp3d-origin="372.04724 : 350.78739 : 1"
       id="perspective10" />
    <linearGradient
       id="linearGradient4233"
       inkscape:collect="always">
      <stop
         id="stop4235"
         offset="0"
         style="stop-color:#ffffff;stop-opacity:1;" />
      <stop
         id="stop4237"
         offset="1"
         style="stop-color:#ffffff;stop-opacity:0;" />
    </linearGradient>
    <linearGradient
       y2="881.59589"
       x2="224.15285"
       y1="863.03436"
       x1="224.15285"
       gradientUnits="userSpaceOnUse"
       id="linearGradient4245"
       xlink:href="#linearGradient4233"
       inkscape:collect="always" />
    <mask
       id="mask4241"
       maskUnits="userSpaceOnUse">
      <rect
         y="862.85754"
         x="66.142136"
         height="45.608387"
         width="372.18439"
         id="rect4243"
         style="fill:url(#linearGradient4245);fill-opacity:1;stroke:none" />
    </mask>
    <inkscape:perspective
       sodipodi:type="inkscape:persp3d"
       inkscape:vp_x="0 : 0.5 : 1"
       inkscape:vp_y="0 : 1000 : 0"
       inkscape:vp_z="1 : 0.5 : 1"
       inkscape:persp3d-origin="0.5 : 0.33333333 : 1"
       id="perspective4265" />
    <inkscape:perspective
       id="perspective4255"
       inkscape:persp3d-origin="372.04724 : 350.78739 : 1"
       inkscape:vp_z="744.09448 : 526.18109 : 1"
       inkscape:vp_y="0 : 1000 : 0"
       inkscape:vp_x="0 : 526.18109 : 1"
       sodipodi:type="inkscape:persp3d" />
    <mask
       id="mask4241-2"
       maskUnits="userSpaceOnUse">
      <rect
         y="862.85754"
         x="66.142136"
         height="45.608387"
         width="372.18439"
         id="rect4243-8"
         style="fill:url(#linearGradient4245-8);fill-opacity:1;stroke:none" />
    </mask>
    <linearGradient
       y2="881.59589"
       x2="224.15285"
       y1="863.03436"
       x1="224.15285"
       gradientUnits="userSpaceOnUse"
       id="linearGradient4245-8"
       xlink:href="#linearGradient4233-0"
       inkscape:collect="always" />
    <linearGradient
       gradientUnits="userSpaceOnUse"
       y2="881.59589"
       x2="224.15285"
       y1="863.03436"
       x1="224.15285"
       id="linearGradient4239"
       xlink:href="#linearGradient4233-0"
       inkscape:collect="always" />
    <linearGradient
       y2="497.12424"
       x2="333.75"
       y1="538.36218"
       x1="333.75"
       gradientTransform="translate(-13.5,304.5)"
       gradientUnits="userSpaceOnUse"
       id="linearGradient4209"
       xlink:href="#linearGradient3641-2"
       inkscape:collect="always" />
    <linearGradient
       y2="497.12424"
       x2="333.75"
       y1="538.36218"
       x1="333.75"
       gradientTransform="translate(-13.5,304.5)"
       gradientUnits="userSpaceOnUse"
       id="linearGradient4205"
       xlink:href="#linearGradient3641-2"
       inkscape:collect="always" />
    <linearGradient
       gradientTransform="translate(-13.5,304.5)"
       y2="497.12424"
       x2="333.75"
       y1="538.36218"
       x1="333.75"
       gradientUnits="userSpaceOnUse"
       id="linearGradient4016"
       xlink:href="#linearGradient3641-2"
       inkscape:collect="always" />
    <linearGradient
       y2="497.12424"
       x2="333.75"
       y1="538.36218"
       x1="333.75"
       gradientUnits="userSpaceOnUse"
       id="linearGradient4013"
       xlink:href="#linearGradient3641-2"
       inkscape:collect="always" />
    <linearGradient
       gradientTransform="matrix(1,0,0,-0.53076332,-13.5,1159.1948)"
       y2="497.12424"
       x2="333.75"
       y1="538.36218"
       x1="333.75"
       gradientUnits="userSpaceOnUse"
       id="linearGradient4001"
       xlink:href="#linearGradient3641-2"
       inkscape:collect="always" />
    <linearGradient
       y2="497.12424"
       x2="333.75"
       y1="538.36218"
       x1="333.75"
       gradientUnits="userSpaceOnUse"
       id="linearGradient3998"
       xlink:href="#linearGradient3641-2"
       inkscape:collect="always" />
    <linearGradient
       y2="497.12424"
       x2="333.75"
       y1="538.36218"
       x1="333.75"
       gradientUnits="userSpaceOnUse"
       id="linearGradient3972"
       xlink:href="#linearGradient3641-2"
       inkscape:collect="always" />
    <linearGradient
       y2="497.12424"
       x2="333.75"
       y1="538.36218"
       x1="333.75"
       gradientUnits="userSpaceOnUse"
       id="linearGradient3970"
       xlink:href="#linearGradient3641-2"
       inkscape:collect="always" />
    <linearGradient
       y2="497.12424"
       x2="333.75"
       y1="538.36218"
       x1="333.75"
       gradientUnits="userSpaceOnUse"
       id="linearGradient3943"
       xlink:href="#linearGradient3641-2"
       inkscape:collect="always" />
    <linearGradient
       y2="497.12424"
       x2="333.75"
       y1="538.36218"
       x1="333.75"
       gradientUnits="userSpaceOnUse"
       id="linearGradient3941"
       xlink:href="#linearGradient3641-2"
       inkscape:collect="always" />
    <linearGradient
       y2="497.12424"
       x2="333.75"
       y1="538.36218"
       x1="333.75"
       gradientUnits="userSpaceOnUse"
       id="linearGradient3857"
       xlink:href="#linearGradient3641-2"
       inkscape:collect="always" />
    <linearGradient
       y2="497.12424"
       x2="333.75"
       y1="538.36218"
       x1="333.75"
       gradientUnits="userSpaceOnUse"
       id="linearGradient3809"
       xlink:href="#linearGradient3641-2"
       inkscape:collect="always" />
    <mask
       id="mask3694"
       maskUnits="userSpaceOnUse">
      <rect
         transform="scale(1,-1)"
         style="fill:url(#linearGradient3698);fill-opacity:1;stroke:none"
         id="rect3696"
         width="434.5"
         height="92.31987"
         x="43"
         y="-560.19806" />
    </mask>
    <linearGradient
       y2="581.96967"
       x2="258"
       y1="558.36218"
       x1="258"
       gradientTransform="matrix(1,0,0,1.884079,0,-1610.3124)"
       gradientUnits="userSpaceOnUse"
       id="linearGradient3698"
       xlink:href="#linearGradient3677"
       inkscape:collect="always" />
    <inkscape:perspective
       id="perspective10-4"
       inkscape:persp3d-origin="372.04724 : 350.78739 : 1"
       inkscape:vp_z="744.09448 : 526.18109 : 1"
       inkscape:vp_y="0 : 1000 : 0"
       inkscape:vp_x="0 : 526.18109 : 1"
       sodipodi:type="inkscape:persp3d" />
    <linearGradient
       id="linearGradient3641-2"
       inkscape:collect="always">
      <stop
         id="stop3643-6"
         offset="0"
         style="stop-color:#333333;stop-opacity:1;" />
      <stop
         id="stop3645-9"
         offset="1"
         style="stop-color:#333333;stop-opacity:0;" />
    </linearGradient>
    <linearGradient
       id="linearGradient3677"
       inkscape:collect="always">
      <stop
         id="stop3679"
         offset="0"
         style="stop-color:#ffffff;stop-opacity:1;" />
      <stop
         id="stop3681"
         offset="1"
         style="stop-color:#ffffff;stop-opacity:0;" />
    </linearGradient>
    <linearGradient
       id="linearGradient4233-0"
       inkscape:collect="always">
      <stop
         id="stop4235-9"
         offset="0"
         style="stop-color:#ffffff;stop-opacity:1;" />
      <stop
         id="stop4237-1"
         offset="1"
         style="stop-color:#ffffff;stop-opacity:0;" />
    </linearGradient>
    <linearGradient
       inkscape:collect="always"
       xlink:href="#linearGradient4692"
       id="linearGradient4698"
       x1="226.91658"
       y1="92.424652"
       x2="226.91658"
       y2="106.95631"
       gradientUnits="userSpaceOnUse" />
    <linearGradient
       inkscape:collect="always"
       xlink:href="#linearGradient4692"
       id="linearGradient4704"
       gradientUnits="userSpaceOnUse"
       x1="226.91658"
       y1="92.424652"
       x2="226.91658"
       y2="106.95631"
       gradientTransform="matrix(1.5511093,0,0,2.7625552,-127.96516,-375.21469)" />
    <linearGradient
       inkscape:collect="always"
       xlink:href="#linearGradient4692"
       id="linearGradient4724"
       gradientUnits="userSpaceOnUse"
       gradientTransform="matrix(1.0923186,0,0,1.0923186,-21.435974,-3.9213069)"
       x1="226.91658"
       y1="92.424652"
       x2="226.91658"
       y2="106.95631" />
    <linearGradient
       inkscape:collect="always"
       xlink:href="#linearGradient4692"
       id="linearGradient4766"
       gradientUnits="userSpaceOnUse"
       gradientTransform="matrix(1.5511093,0,0,3.5796724,-127.96515,-451.87896)"
       x1="226.91658"
       y1="92.424652"
       x2="226.91658"
       y2="106.95631" />
    <linearGradient
       inkscape:collect="always"
       xlink:href="#linearGradient4692"
       id="linearGradient4769"
       gradientUnits="userSpaceOnUse"
       gradientTransform="matrix(1.0923186,0,0,0.84841616,-21.435975,18.628254)"
       x1="226.91658"
       y1="92.424652"
       x2="226.91658"
       y2="121.44503" />
    <linearGradient
       inkscape:collect="always"
       xlink:href="#linearGradient4692"
       id="linearGradient4811"
       gradientUnits="userSpaceOnUse"
       gradientTransform="matrix(1.5511093,0,0,1.2047641,-127.96516,-230.58166)"
       x1="226.91658"
       y1="92.424652"
       x2="226.91658"
       y2="121.44503" />
    <mask
       maskUnits="userSpaceOnUse"
       id="mask4807">
      <rect
         style="fill:url(#linearGradient4811);fill-opacity:1;stroke:none"
         id="rect4809"
         width="405.26758"
         height="34.927773"
         x="29.561802"
         y="-119.19736"
         transform="scale(1,-1)" />
    </mask>
  </defs>
  <sodipodi:namedview
     id="base"
     pagecolor="#ffffff"
     bordercolor="#666666"
     borderopacity="1.0"
     inkscape:pageopacity="0.0"
     inkscape:pageshadow="2"
     inkscape:zoom="1"
     inkscape:cx="148.57838"
     inkscape:cy="-20.122181"
     inkscape:document-units="px"
     inkscape:current-layer="layer1"
     showgrid="false"
     inkscape:window-width="1552"
     inkscape:window-height="801"
     inkscape:window-x="29"
     inkscape:window-y="251"
     inkscape:window-maximized="0" />
  <metadata
     id="metadata7">
    <rdf:RDF>
      <cc:Work
         rdf:about="">
        <dc:format>image/svg+xml</dc:format>
        <dc:type
           rdf:resource="http://purl.org/dc/dcmitype/StillImage" />
        <dc:title></dc:title>
      </cc:Work>
    </rdf:RDF>
  </metadata>
  <g
     inkscape:groupmode="layer"
     id="layer2"
     inkscape:label="base"
     style="display:none"
     transform="translate(4.1146368,9.810574)"
     sodipodi:insensitive="true">
    <g
       id="layer1-8"
       inkscape:label="Layer 1"
       transform="translate(477.15762,-480.6054)">
      <rect
         y="454.44241"
         x="-502.76794"
         height="138.85715"
         width="391.42856"
         id="rect2855"
         style="fill:#222222;fill-opacity:1;stroke:none" />
    </g>
  </g>
  <g
     inkscape:label="Layer 1"
     inkscape:groupmode="layer"
     id="layer1"
     transform="translate(-56.096309,-34.522546)">
    <g
       id="g2920"
       transform="matrix(0.85845946,0,0,0.85845946,14.675594,9.1618603)">
      <g
         transform="matrix(1.0955041,0,0,1.0955041,-20.515087,-99.32027)"
         id="text2816"
         style="font-size:67.44394684px;font-style:normal;font-variant:normal;font-weight:normal;font-stretch:normal;text-align:start;line-height:125%;letter-spacing:-5.20164204px;writing-mode:lr-tb;text-anchor:start;fill:#999999;fill-opacity:1;stroke:none;font-family:Doulos SIL;-inkscape-font-specification:Doulos SIL">
        <path
           style="fill:#999999;stroke:none"
           id="path2829"
           d="m 122.28043,148.83474 c -1.95399,0.26348 -3.392,1.53684 -4.31404,3.82007 l -10.04414,26.11477 -1.38313,0 -7.541341,-19.36379 -8.726878,19.36379 -1.251401,0 -9.714826,-25.39027 c -0.329321,-0.81229 -0.64766,-1.4819 -0.955017,-2.00883 -0.307366,-0.52688 -0.625704,-0.93304 -0.955017,-1.21847 -0.241502,-0.30734 -0.614726,-0.57079 -1.119675,-0.79036 -0.504953,-0.21952 -1.097721,-0.39515 -1.778307,-0.52691 l 0,-1.21847 12.711603,0 0,1.21847 c -1.163595,0.0659 -1.942976,0.26348 -2.338144,0.59277 -0.373236,0.37325 -0.570825,0.86723 -0.592769,1.48192 -1.1e-5,0.61475 0.197579,1.43804 0.592769,2.46988 l 6.520459,17.32202 6.487528,-14.16059 -1.712444,-4.4787 c -0.526927,-1.29528 -1.21849,-2.19541 -2.074691,-2.70039 -0.504971,-0.28538 -1.405101,-0.46102 -2.700393,-0.52691 l 0,-1.21847 14.358184,0 0,1.21847 c -0.81234,0.0439 -1.49293,0.12078 -2.04176,0.23052 -0.54889,0.1098 -0.98798,0.28544 -1.31726,0.52691 -0.13176,0.13175 -0.25251,0.31837 -0.36225,0.55984 -0.1098,0.21957 -0.19762,0.47204 -0.26346,0.75742 -0.0439,0.28544 -0.0549,0.58182 -0.0329,0.88916 0.0439,0.30738 0.14268,0.59279 0.29639,0.85622 l 6.88271,17.32203 6.257,-16.59753 c 0.48296,-1.22943 0.72446,-2.18444 0.7245,-2.86506 -4e-5,-0.13169 -0.033,-0.28538 -0.0988,-0.46104 -0.0659,-0.19756 -0.20861,-0.38417 -0.42811,-0.55984 -0.21958,-0.19756 -0.53792,-0.35124 -0.95502,-0.46104 -0.41717,-0.1317 -0.97701,-0.19756 -1.67951,-0.19759 l 0,-1.21847 9.55017,0 0,1.21847" />
        <path
           style="fill:#999999;stroke:none"
           id="path2831"
           d="m 145.69636,166.74954 c -0.21957,1.47096 -0.66964,2.93092 -1.35019,4.37991 -0.68062,1.42704 -1.54782,2.71137 -2.6016,3.85299 -1.05384,1.11968 -2.29426,2.03079 -3.72127,2.73333 -1.42706,0.70254 -3.00778,1.05381 -4.74216,1.05381 -1.77832,0 -3.46881,-0.36225 -5.07147,-1.08674 -1.60268,-0.74645 -3.00776,-1.80026 -4.21524,-3.16144 -1.18555,-1.38312 -2.12958,-3.04068 -2.83212,-4.97267 -0.70255,-1.95393 -1.05382,-4.12742 -1.05381,-6.52046 -1e-5,-2.5467 0.34029,-4.82995 1.02088,-6.84978 0.70253,-2.01978 1.66853,-3.73222 2.89798,-5.13733 1.25139,-1.40505 2.73331,-2.48082 4.44577,-3.2273 1.71243,-0.74642 3.58953,-1.11964 5.6313,-1.11967 1.66852,3e-5 3.20533,0.28544 4.61043,0.85622 1.42701,0.54889 2.65646,1.35022 3.68834,2.40401 1.03183,1.05384 1.83317,2.33817 2.40401,3.853 0.59274,1.51487 0.88912,3.22731 0.88915,5.13733 l -20.91157,0 c -1e-5,2.23936 0.29637,4.24819 0.88915,6.02648 0.59276,1.77832 1.3941,3.2822 2.40401,4.51163 1.00989,1.22946 2.17347,2.1735 3.49075,2.83212 1.3392,0.63669 2.74428,0.966 4.21525,0.98795 0.98793,0.022 1.89903,-0.0768 2.73332,-0.29638 0.8562,-0.2415 1.64656,-0.63668 2.37108,-1.18554 0.72447,-0.57081 1.39408,-1.31726 2.00882,-2.23935 0.63666,-0.94403 1.21845,-2.10761 1.74538,-3.49075 l 1.05381,0.65863 m -6.88271,-9.64896 c -2e-5,-1.66852 -0.24152,-3.01871 -0.72449,-4.05059 -0.48302,-1.05379 -1.06481,-1.87708 -1.74538,-2.46987 -0.6806,-0.59274 -1.39412,-0.9989 -2.14055,-1.21847 -0.74647,-0.21952 -1.39412,-0.32929 -1.94297,-0.32932 -0.87819,3e-5 -1.74539,0.17567 -2.60159,0.52691 -0.83428,0.3513 -1.59171,0.86722 -2.27229,1.54778 -0.68059,0.68062 -1.25141,1.52586 -1.71244,2.53574 -0.46105,1.00992 -0.75743,2.16253 -0.88915,3.45782 l 14.02886,0" />
        <path
           style="fill:#999999;stroke:none"
           id="path2833"
           d="m 173.88738,161.48048 c -3e-5,2.48086 -0.42814,4.78608 -1.28433,6.91564 -0.8343,2.10763 -1.96495,3.92985 -3.39196,5.46665 -1.42706,1.53681 -3.08462,2.7443 -4.97267,3.62248 -1.86615,0.85622 -3.84204,1.28433 -5.92769,1.28433 -1.73442,0 -3.51272,-0.31834 -5.33493,-0.95502 -1.80027,-0.63667 -3.67737,-1.62462 -5.6313,-2.96384 l 0,-31.21917 c -1e-5,-1.69046 -0.022,-3.02967 -0.0659,-4.01766 -0.022,-0.98791 -0.0768,-1.74534 -0.16465,-2.27228 -0.0878,-0.52687 -0.1976,-0.90009 -0.32932,-1.11968 -0.13173,-0.2195 -0.29639,-0.40611 -0.49397,-0.55983 -0.35128,-0.30732 -0.79037,-0.45003 -1.31727,-0.42811 -0.50495,4e-5 -1.27336,0.1647 -2.30521,0.49397 l -0.46104,-1.18554 9.12205,-3.62248 1.54779,0 0,21.89953 c 2.89797,-4.03958 6.04842,-6.05939 9.45137,-6.05942 1.53679,3e-5 2.99676,0.34032 4.37991,1.02088 1.40505,0.65866 2.6345,1.62466 3.68834,2.89798 1.07574,1.25143 1.92098,2.78824 2.53573,4.61043 0.63665,1.82224 0.95499,3.88595 0.95502,6.19114 m -5.69717,1.8771 c -3e-5,-1.88806 -0.23055,-3.57855 -0.69156,-5.07146 -0.46107,-1.49288 -1.07579,-2.75526 -1.84417,-3.78714 -0.76843,-1.03183 -1.66856,-1.81121 -2.7004,-2.33814 -1.03187,-0.54884 -2.11862,-0.82327 -3.26023,-0.8233 -0.39519,3e-5 -0.8233,0.0439 -1.28433,0.13173 -0.46106,0.0659 -0.96601,0.21957 -1.51485,0.46104 -0.52692,0.24153 -1.11969,0.60378 -1.77831,1.08675 -0.65865,0.46106 -1.40509,1.07579 -2.23935,1.84417 l 0,18.11239 c 1.0538,1.07577 2.18445,1.89906 3.39196,2.46987 1.20747,0.57081 2.4479,0.85622 3.72127,0.85622 0.98793,0 1.9649,-0.26345 2.93091,-0.79036 0.98793,-0.54886 1.8661,-1.36117 2.63453,-2.43694 0.79034,-1.09771 1.42701,-2.44791 1.91003,-4.05059 0.48298,-1.62461 0.72447,-3.51269 0.7245,-5.66424" />
        <path
           style="fill:#999999;stroke:none"
           id="path2835"
           d="m 198.78523,177.78163 -26.31236,0 0,-1.2514 c 3.86397,-3.53466 7.15713,-6.72902 9.87948,-9.5831 2.74429,-2.85406 4.9068,-5.4337 6.48753,-7.73893 3.16141,-4.52258 4.74213,-8.6061 4.74215,-12.25056 -2e-5,-1.91 -0.32934,-3.49072 -0.98795,-4.74215 -0.65865,-1.25137 -1.45999,-2.25029 -2.404,-2.99678 -0.92211,-0.74641 -1.8881,-1.26234 -2.89799,-1.54779 -0.98796,-0.30732 -1.8332,-0.461 -2.53573,-0.46104 -1.58073,4e-5 -2.9419,0.27447 -4.08352,0.82329 -1.11968,0.5489 -2.0747,1.21851 -2.86505,2.00883 -0.76841,0.7904 -1.38314,1.62466 -1.84417,2.5028 -0.46105,0.85626 -0.80134,1.59173 -1.02088,2.20642 l -1.15261,0 c 0.0878,-0.6586 0.23052,-1.427 0.42811,-2.30521 0.19759,-0.9001 0.49397,-1.8112 0.88916,-2.73333 0.39517,-0.944 0.90012,-1.86608 1.51485,-2.76625 0.61472,-0.90009 1.37214,-1.70142 2.27228,-2.40401 0.92208,-0.72445 1.99784,-1.30624 3.2273,-1.74537 1.25139,-0.43905 2.6894,-0.65859 4.31404,-0.65864 1.5807,5e-5 3.13946,0.27448 4.67629,0.82329 1.53679,0.52695 2.89796,1.29536 4.08352,2.30522 1.20747,1.00994 2.17346,2.25036 2.89798,3.72127 0.74642,1.44903 1.11965,3.08463 1.11968,4.90681 -3e-5,1.75638 -0.32935,3.50176 -0.98795,5.23613 -0.63671,1.71247 -1.43804,3.35905 -2.40401,4.93974 -0.94406,1.58074 -1.97592,3.05168 -3.09557,4.41284 -1.09774,1.33923 -2.10764,2.51379 -3.02971,3.52368 -2.74432,2.98581 -4.96171,5.36786 -6.65219,7.14616 -1.6905,1.77831 -2.87603,2.9858 -3.55661,3.62248 l 11.69072,0 c 1.69047,0 3.04067,-0.0439 4.05059,-0.13173 1.00988,-0.10977 1.83317,-0.29638 2.46987,-0.55984 0.65861,-0.26344 1.19649,-0.62569 1.61365,-1.08674 0.43906,-0.46104 0.91108,-1.0538 1.41606,-1.77831 l 1.21847,0 -3.16143,8.56222" />
        <path
           style="fill:#999999;stroke:none"
           id="path2837"
           d="m 227.20676,166.32143 c -0.28543,1.82223 -0.82331,3.50174 -1.61364,5.03854 -0.79039,1.51486 -1.75638,2.82114 -2.89799,3.91886 -1.11969,1.09772 -2.37109,1.95394 -3.7542,2.56866 -1.38315,0.61473 -2.82116,0.92209 -4.31404,0.92209 -1.77832,0 -3.44686,-0.37323 -5.00561,-1.11967 -1.55877,-0.76841 -2.91994,-1.84417 -4.08352,-3.2273 -1.16359,-1.40508 -2.08567,-3.09557 -2.76625,-5.07147 -0.65864,-1.97589 -0.98795,-4.1823 -0.98795,-6.61926 0,-2.39301 0.3842,-4.56649 1.1526,-6.52046 0.7684,-1.97587 1.80026,-3.65538 3.09558,-5.03853 1.31725,-1.40506 2.84308,-2.4918 4.57749,-3.26023 1.75634,-0.76838 3.61149,-1.15258 5.56544,-1.15261 3.00774,3e-5 5.45565,0.77941 7.34375,2.33815 0.94402,0.76843 1.66851,1.55879 2.17349,2.37107 0.50492,0.81234 0.7574,1.63563 0.75743,2.46987 -3e-5,0.76843 -0.26348,1.42706 -0.79036,1.9759 -0.50498,0.54888 -1.27338,0.82331 -2.30521,0.82329 -0.32934,2e-5 -0.69159,-0.0329 -1.08675,-0.0988 -0.3952,-0.0658 -0.7794,-0.21952 -1.1526,-0.46104 -0.3513,-0.26343 -0.65866,-0.64763 -0.92209,-1.1526 -0.26347,-0.52689 -0.42813,-1.2404 -0.49397,-2.14056 -0.1098,-1.18551 -0.52693,-2.14053 -1.25141,-2.86505 -0.70255,-0.74642 -1.81125,-1.11965 -3.32609,-1.11967 -1.25141,2e-5 -2.37109,0.28543 -3.35902,0.85622 -0.98796,0.54889 -1.82223,1.31729 -2.50281,2.30521 -0.68059,0.96602 -1.19652,2.11862 -1.54778,3.45782 -0.35128,1.33924 -0.52692,2.78823 -0.52691,4.34697 -1e-5,1.77833 0.20856,3.49077 0.6257,5.13733 0.43908,1.6466 1.07576,3.10656 1.91004,4.37991 0.83425,1.25141 1.85513,2.25033 3.06264,2.99678 1.20748,0.74645 2.60158,1.11968 4.18231,1.11967 0.92207,1e-5 1.80024,-0.0988 2.63453,-0.29638 0.8562,-0.21954 1.66851,-0.61472 2.43694,-1.18554 0.76838,-0.57081 1.50385,-1.35019 2.20642,-2.33815 0.72447,-1.00989 1.41603,-2.29422 2.07469,-3.85299 l 0.88915,0.49397" />
        <path
           style="fill:#999999;stroke:none"
           id="path2839"
           d="m 261.68772,177.78163 0,-1.2514 c 1.1855,0 2.09661,-0.0988 2.73332,-0.29638 0.6586,-0.19759 1.14159,-0.51593 1.449,-0.95502 0.30732,-0.43909 0.49393,-1.0099 0.55983,-1.71245 0.0658,-0.72449 0.0988,-1.59168 0.0988,-2.60159 l 0,-13.04092 c -4e-5,-1.36115 -0.0988,-2.50278 -0.29639,-3.42489 -0.19763,-0.92206 -0.50499,-1.66851 -0.92208,-2.23935 -0.41718,-0.57079 -0.94408,-0.97694 -1.58072,-1.21847 -0.61476,-0.26343 -1.33926,-0.39515 -2.17349,-0.39518 -0.48303,3e-5 -1.02091,0.0659 -1.61365,0.19759 -0.57084,0.1098 -1.18557,0.31837 -1.84417,0.6257 -0.63671,0.30739 -1.31729,0.72452 -2.04176,1.2514 -0.72452,0.52693 -1.49293,1.19654 -2.30521,2.00883 l 0,16.23529 c -3e-5,1.07577 0.0329,1.9759 0.0988,2.70039 0.0878,0.70254 0.28537,1.27336 0.59277,1.71244 0.32928,0.41714 0.81228,0.71352 1.44899,0.88916 0.6586,0.17563 1.55873,0.26345 2.70039,0.26345 l 0,1.2514 -15.28027,0 0,-1.2514 c 1.27333,0 2.25031,-0.10977 2.93091,-0.32932 0.68057,-0.21954 1.16356,-0.55983 1.44899,-1.02088 0.30734,-0.46104 0.472,-1.04283 0.49398,-1.74537 0.0439,-0.70254 0.0658,-1.52583 0.0659,-2.46987 l 0,-13.04092 c -2e-5,-1.3392 -0.12077,-2.46985 -0.36225,-3.39196 -0.24152,-0.94401 -0.58181,-1.70144 -1.02088,-2.27228 -0.43911,-0.59274 -0.97699,-1.02085 -1.61365,-1.28433 -0.63669,-0.26343 -1.35021,-0.39516 -2.14055,-0.39518 -0.79038,2e-5 -1.55878,0.13175 -2.30521,0.39518 -0.72451,0.24152 -1.41608,0.55986 -2.0747,0.95501 -0.63669,0.39521 -1.24043,0.84527 -1.81123,1.3502 -0.57083,0.48302 -1.08676,0.96602 -1.54779,1.44899 l 0,16.23529 c -1e-5,1.27336 0.0659,2.28326 0.19759,3.02971 0.15367,0.72449 0.40614,1.27335 0.75743,1.64658 0.37321,0.37322 0.87816,0.61472 1.51485,0.72449 0.63667,0.10978 1.438,0.16466 2.40401,0.16466 l 0,1.2514 -14.91802,0 0,-1.2514 c 0.96599,0 1.73439,-0.0659 2.30521,-0.19759 0.59277,-0.15368 1.05381,-0.42811 1.38313,-0.82329 0.32931,-0.39518 0.54885,-0.95501 0.65863,-1.67951 0.10977,-0.72449 0.16465,-1.67951 0.16466,-2.86505 l 0,-11.559 c -1e-5,-1.66851 -0.011,-3.09555 -0.0329,-4.28111 -1e-5,-1.20747 -0.13173,-2.14053 -0.39518,-2.79919 -0.24151,-0.68056 -0.68059,-1.08671 -1.31727,-1.21847 -0.61472,-0.1317 -1.53681,0.022 -2.76625,0.46105 l -0.55984,-1.18554 9.18792,-3.62248 1.41606,0 0,6.3558 c 1.22943,-1.31724 2.31618,-2.393 3.26023,-3.2273 0.96598,-0.83423 1.85513,-1.48189 2.66746,-1.94296 0.83425,-0.46101 1.61363,-0.76838 2.33815,-0.92209 0.72447,-0.1756 1.45994,-0.26342 2.20641,-0.26345 0.90011,3e-5 1.75633,0.13176 2.56867,0.39518 0.81229,0.24153 1.54776,0.62573 2.20642,1.15261 0.68056,0.50498 1.26235,1.16361 1.74537,1.97589 0.50493,0.79039 0.87815,1.73443 1.11968,2.83212 1.11964,-1.29528 2.14052,-2.34909 3.06264,-3.16143 0.92205,-0.81229 1.80023,-1.45994 2.63453,-1.94297 0.83423,-0.48296 1.64654,-0.81228 2.43694,-0.98795 0.79032,-0.1756 1.60263,-0.26342 2.43694,-0.26345 1.2294,3e-5 2.32712,0.19762 3.29316,0.59277 0.9879,0.39521 1.82217,1.04286 2.5028,1.94296 0.7025,0.87821 1.24038,2.03081 1.61365,3.45782 0.37318,1.40511 0.55979,3.12853 0.55984,5.17027 l 0,13.04092 c -5e-5,1.14163 0.0658,2.07469 0.19759,2.79918 0.13168,0.7245 0.37317,1.29532 0.72449,1.71245 0.35122,0.41713 0.81227,0.70254 1.38313,0.85622 0.59272,0.13173 1.35015,0.19759 2.27228,0.19759 l 0,1.2514 -14.91802,0" />
        <path
           style="fill:#999999;stroke:none"
           id="path2841"
           d="m 295.60883,170.17443 c -2e-5,1.14163 -0.27445,2.23935 -0.82329,3.29316 -0.54888,1.03186 -1.28436,1.94297 -2.20642,2.73332 -0.9221,0.79036 -1.99787,1.41606 -3.2273,1.87711 -1.20751,0.46104 -2.48086,0.69156 -3.82006,0.69156 -0.81233,0 -1.60269,-0.0988 -2.37108,-0.29638 -0.74646,-0.17564 -1.47096,-0.38421 -2.17349,-0.62571 -0.68059,-0.24149 -1.32825,-0.47201 -1.94296,-0.69156 -0.59278,-0.21954 -1.14164,-0.36225 -1.64658,-0.42811 -0.24151,0 -0.46105,0.17564 -0.65864,0.52691 -0.19759,0.35127 -0.36225,0.6696 -0.49397,0.95501 l -1.08674,0 0,-10.76864 1.08674,0 c 0.2854,1.53682 0.72449,2.88702 1.31727,4.05059 0.61471,1.14164 1.32823,2.10763 2.14055,2.89799 0.83426,0.7684 1.74537,1.35019 2.73332,1.74537 0.98794,0.39518 2.0198,0.59277 3.09558,0.59277 0.81229,0 1.53679,-0.12075 2.17348,-0.36225 0.63666,-0.24149 1.17455,-0.55983 1.61365,-0.95501 0.43907,-0.41714 0.77936,-0.88916 1.02088,-1.41606 0.24148,-0.54886 0.36223,-1.11967 0.36225,-1.71245 0.0219,-0.74644 -0.0659,-1.42703 -0.26345,-2.04176 -0.17566,-0.63667 -0.5379,-1.25139 -1.08675,-1.84417 -0.54887,-0.61471 -1.32826,-1.25139 -2.33814,-1.91003 -0.98796,-0.68058 -2.30523,-1.438 -3.9518,-2.27228 -1.60268,-0.83426 -2.93092,-1.61364 -3.98472,-2.33815 -1.03186,-0.72448 -1.85515,-1.45995 -2.46987,-2.20642 -0.59278,-0.74643 -1.00991,-1.51483 -1.2514,-2.30521 -0.24151,-0.79034 -0.36225,-1.64656 -0.36225,-2.56867 0,-1.11965 0.20856,-2.16248 0.6257,-3.1285 0.43908,-0.98792 1.07576,-1.84414 1.91003,-2.56866 0.83426,-0.72447 1.85514,-1.29529 3.06264,-1.71245 1.22944,-0.4171 2.63452,-0.62567 4.21525,-0.6257 0.68057,3e-5 1.35018,0.0659 2.00883,0.19759 0.68057,0.1098 1.31725,0.24153 1.91003,0.39518 0.59275,0.13176 1.11966,0.26348 1.58072,0.39518 0.46102,0.1098 0.82327,0.16469 1.08674,0.16466 0.30734,3e-5 0.55982,-0.0549 0.75743,-0.16466 0.21952,-0.1317 0.46102,-0.46101 0.7245,-0.98795 l 1.08674,0 0,10.27466 -1.08674,0 c -0.3952,-1.6246 -0.86722,-2.97479 -1.41606,-4.05058 -0.54888,-1.07574 -1.16361,-1.93197 -1.84417,-2.56867 -0.68061,-0.63665 -1.43803,-1.08672 -2.27229,-1.3502 -0.81232,-0.28537 -1.6905,-0.42808 -2.63452,-0.42811 -2.01982,3e-5 -3.50174,0.37326 -4.44577,1.11968 -0.9221,0.72452 -1.39411,1.66856 -1.41606,2.83212 -0.022,0.59279 0.022,1.17458 0.13172,1.74537 0.13172,0.54888 0.37322,1.08677 0.7245,1.61365 0.37322,0.50497 0.87817,0.99895 1.51485,1.48192 0.65863,0.48302 1.51485,0.96602 2.56867,1.44899 l 4.87388,2.30522 c 2.28324,1.05382 4.00666,2.33816 5.17026,3.853 1.18552,1.51486 1.77829,3.2273 1.77831,5.13733" />
      </g>
      <path
         id="path4494"
         d="m 145.27232,44.103056 -9.99108,3.961225 0.50615,1.298401 c 1.13039,-0.360717 1.9556,-0.52812 2.50878,-0.528163 0.57722,-0.02401 1.06762,0.125472 1.45245,0.462142 0.21645,0.168401 0.40586,0.375727 0.55017,0.616191 0.1443,0.240561 0.25592,0.655192 0.35211,1.232381 0.0962,0.577265 0.15197,1.404509 0.17605,2.486769 0.0481,1.082346 0.066,2.549454 0.066,4.40136 l 0,25.285817 6.07387,-0.48415 0,-12.499864 c 0.91394,-0.841763 1.72121,-1.519533 2.44276,-2.024626 0.72153,-0.529096 1.38136,-0.92377 1.9586,-1.188367 0.60126,-0.264531 1.14542,-0.433962 1.65051,-0.506157 0.50506,-0.09622 0.97551,-0.154014 1.40844,-0.154047 1.25063,3.3e-5 2.43468,0.301022 3.5651,0.902279 1.13038,0.577254 2.1291,1.444422 2.97092,2.574796 0.84177,1.130429 1.51952,2.501822 2.02463,4.137278 0.50503,1.63549 0.7482,3.499344 0.74823,5.567722 -1e-5,0.646014 -0.0264,1.267849 -0.066,1.870578 l 6.02987,-0.462143 c 0.18231,-1.126017 0.28607,-2.279911 0.28608,-3.477075 -3e-5,-2.525345 -0.35887,-4.781824 -1.05632,-6.778095 -0.67347,-1.996216 -1.59438,-3.668612 -2.77286,-5.039558 -1.15449,-1.394928 -2.51001,-2.469422 -4.04925,-3.190986 -1.51525,-0.745556 -3.11392,-1.100307 -4.79748,-1.100341 -3.72795,3.4e-5 -7.16846,2.198672 -10.3432,6.624048 l 0,-23.987415 -1.69453,0 z m 38.44589,1.342415 c -1.7798,5.4e-5 -3.33855,0.223237 -4.70946,0.704218 -1.34688,0.481068 -2.53295,1.120954 -3.54309,1.914592 -0.98611,0.76969 -1.81334,1.654763 -2.48677,2.640816 -0.67344,0.98614 -1.23961,2.002782 -1.67252,3.036939 -0.43293,1.010196 -0.75183,2.006862 -0.9683,2.992925 -0.21646,0.962082 -0.36596,1.809284 -0.46214,2.530782 l 1.25439,0 c 0.2405,-0.673395 0.61727,-1.482712 1.12235,-2.420748 0.50505,-0.962006 1.18283,-1.884964 2.02462,-2.750851 0.86584,-0.865799 1.89835,-1.599357 3.12497,-2.20068 1.25065,-0.601234 2.75769,-0.902235 4.48938,-0.902279 0.76963,4.4e-5 1.69055,0.169486 2.77286,0.506157 1.10634,0.312711 2.1588,0.876828 3.16898,1.694524 1.03417,0.817782 1.91926,1.908132 2.64082,3.279013 0.7215,1.370947 1.0783,3.101193 1.07833,5.193606 -3e-5,3.99252 -1.73027,8.469645 -5.1936,13.424149 -1.05778,1.542592 -2.38351,3.208184 -3.91722,4.973538 l 3.36705,-0.264082 c 0.51504,-0.557394 0.94196,-1.025209 1.49646,-1.628503 1.01013,-1.106339 2.09844,-2.406066 3.30102,-3.873198 1.22658,-1.491156 2.37683,-3.109789 3.41105,-4.841496 1.05823,-1.731652 1.92129,-3.515649 2.61881,-5.391667 0.7215,-1.900009 1.07831,-3.819653 1.07834,-5.743775 -3e-5,-1.996205 -0.39267,-3.782242 -1.21038,-5.36966 -0.79371,-1.611388 -1.8682,-2.986872 -3.19098,-4.093266 -1.29879,-1.106305 -2.78382,-1.931499 -4.46739,-2.508775 -1.6836,-0.601223 -3.39592,-0.902225 -5.12758,-0.902279 z m -57.32772,15.932925 c -2.23677,3.3e-5 -4.28593,0.414675 -6.16191,1.232381 -1.876,0.817772 -3.4926,2.003857 -4.8635,3.543095 -1.34687,1.539304 -2.42136,3.399058 -3.19099,5.611735 -0.74558,2.212732 -1.10035,4.7144 -1.10034,7.50432 -1e-5,2.28593 0.29706,4.394015 0.88028,6.315952 l 6.91013,-0.55017 c -0.67285,-1.070622 -1.24061,-2.269352 -1.69452,-3.631122 -0.6494,-1.948124 -0.99032,-4.148814 -0.99031,-6.602041 l 22.90908,0 c -3e-5,-2.092435 -0.31894,-3.974196 -0.9683,-5.633742 -0.62536,-1.659502 -1.51044,-3.048813 -2.64081,-4.203299 -1.13043,-1.154431 -2.46395,-2.039505 -4.02725,-2.640816 -1.53929,-0.625292 -3.23369,-0.94626 -5.06156,-0.946293 z m 89.12755,0.08803 c -1.84931,0.09209 -3.62007,0.517845 -5.30364,1.254388 -1.90005,0.841818 -3.5745,2.025853 -5.01755,3.565102 -1.41903,1.515246 -2.54727,3.359134 -3.38905,5.523708 -0.80593,2.049411 -1.241,4.331122 -1.27639,6.822109 l 6.05187,-0.462143 c -0.0763,-0.776018 -0.13204,-1.555564 -0.13204,-2.354728 -1e-5,-1.707606 0.18735,-3.286327 0.57217,-4.75347 0.38481,-1.467099 0.97094,-2.748898 1.71653,-3.807176 0.74558,-1.082271 1.64654,-1.907465 2.72885,-2.508776 1.08228,-0.625303 2.30421,-0.946271 3.67513,-0.946292 1.65952,2.1e-5 2.88349,0.414675 3.65313,1.23238 0.79367,0.793715 1.24414,1.826236 1.36442,3.124966 0.0721,0.986129 0.26154,1.777518 0.55017,2.354728 0.28859,0.553197 0.62747,0.9658 1.01232,1.254388 0.40884,0.264586 0.82145,0.434072 1.25439,0.506157 0.4329,0.07219 0.82757,0.110056 1.18836,0.110034 1.13038,2.2e-5 1.97757,-0.30098 2.53079,-0.902279 0.57719,-0.601257 0.85823,-1.314849 0.85826,-2.156667 -3e-5,-0.913913 -0.26111,-1.816915 -0.81425,-2.706837 -0.003,-0.005 0.003,-0.01703 0,-0.02201 1.14236,-0.371832 2.01601,-0.50326 2.61881,-0.374115 0.69748,0.144343 1.18787,0.596859 1.45245,1.342415 0.28861,0.721564 0.44013,1.736157 0.44013,3.058945 0.024,1.298786 0.022,2.85959 0.022,4.687449 l 0,0.924286 6.07388,-0.48415 0,-5.567721 c 0.50506,-0.529095 1.06918,-1.05534 1.69453,-1.584489 0.62531,-0.553154 1.28311,-1.041502 1.98061,-1.474456 0.72152,-0.432889 1.473,-0.791741 2.2667,-1.056327 0.81772,-0.288589 1.66492,-0.418107 2.53078,-0.418129 0.86582,2.2e-5 1.63522,0.12954 2.33272,0.418129 0.69747,0.288644 1.3015,0.759087 1.78255,1.408436 0.48101,0.625358 0.85776,1.452602 1.12235,2.486768 0.26455,1.010176 0.3961,2.252051 0.39612,3.71915 l 0,0.968299 6.00786,-0.484149 0,-3.983232 c 0.88986,-0.889867 1.73707,-1.623426 2.53078,-2.20068 0.79366,-0.577199 1.54718,-1.027675 2.2447,-1.364422 0.7215,-0.336681 1.39927,-0.561924 2.02462,-0.682211 0.64935,-0.144266 1.23138,-0.220035 1.76055,-0.220068 0.9139,3.3e-5 1.70326,0.151547 2.37673,0.440136 0.69744,0.264598 1.28152,0.695106 1.73854,1.320409 0.45692,0.625358 0.79581,1.454642 1.01231,2.464762 0.18553,0.865819 0.26305,1.90809 0.28609,3.124966 l 6.02986,-0.462143 c -0.0578,-1.762153 -0.25395,-3.29637 -0.59418,-4.577415 -0.40892,-1.563295 -0.99095,-2.823087 -1.76054,-3.78517 -0.74564,-0.986064 -1.66861,-1.701706 -2.75085,-2.13466 -1.0583,-0.432889 -2.2623,-0.638164 -3.60912,-0.638198 -0.91399,3.4e-5 -1.79702,0.09372 -2.66282,0.286089 -0.86589,0.192447 -1.74892,0.549248 -2.66283,1.078333 -0.91397,0.529161 -1.87278,1.244793 -2.88289,2.13466 -1.01018,0.889922 -2.14047,2.036084 -3.36704,3.455068 -0.26459,-1.202523 -0.67922,-2.237084 -1.23238,-3.102959 -0.52915,-0.889857 -1.14703,-1.603459 -1.89258,-2.156667 -0.72157,-0.577199 -1.53089,-1.011797 -2.42075,-1.276394 -0.88993,-0.288578 -1.8308,-0.418096 -2.81687,-0.41813 -0.81776,3.4e-5 -1.6271,0.09372 -2.42075,0.286089 -0.79372,0.16839 -1.63886,0.507274 -2.55279,1.012313 -0.88991,0.505103 -1.86867,1.19875 -2.92691,2.112653 -1.03421,0.913979 -2.21825,2.100054 -3.5651,3.543095 l 0,-6.95415 -1.56248,0 -9.96908,3.939218 c -0.41871,-0.46947 -0.91499,-0.931019 -1.47446,-1.386428 -2.06842,-1.707606 -4.73749,-2.552756 -8.03248,-2.55279 -0.26757,5e-6 -0.52806,-0.01315 -0.79225,0 z m 75.96748,0 c -1.7317,3.4e-5 -3.27457,0.225277 -4.62143,0.682211 -1.32282,0.457001 -2.4311,1.076919 -3.34503,1.870579 -0.91395,0.793714 -1.60964,1.7346 -2.09065,2.81687 -0.45698,1.058279 -0.68221,2.206481 -0.68221,3.433062 0,0.732554 0.0592,1.417527 0.19806,2.068639 l 5.25963,-0.418129 c -0.11339,-0.129368 -0.21181,-0.265848 -0.3081,-0.396123 -0.38482,-0.577199 -0.64794,-1.159243 -0.79224,-1.760544 -0.12022,-0.625303 -0.15613,-1.265188 -0.13204,-1.914592 0.0241,-1.274684 0.53031,-2.309244 1.54048,-3.102959 1.03418,-0.817707 2.65078,-1.232348 4.8635,-1.232381 1.03418,3.3e-5 2.015,0.149519 2.9049,0.462143 0.91393,0.288643 1.74115,0.777003 2.48677,1.474456 0.74555,0.697508 1.40131,1.638393 2.00261,2.81687 0.37409,0.733254 0.70012,1.606484 1.01232,2.574796 l 1.73853,-0.13204 0,-9.242858 -1.18836,0 c -0.28865,0.577265 -0.55176,0.934056 -0.79225,1.078334 -0.21648,0.120246 -0.49956,0.176087 -0.83626,0.176054 -0.28863,3.3e-5 -0.68331,-0.05577 -1.18836,-0.176054 -0.5051,-0.144278 -1.08918,-0.295793 -1.73854,-0.440136 -0.6494,-0.168325 -1.34508,-0.31985 -2.09065,-0.440136 -0.72155,-0.144267 -1.45512,-0.198028 -2.20068,-0.198062 z m -230.389216,0.924286 0,1.342415 c 0.745585,0.144344 1.405427,0.331692 1.958605,0.572177 0.553174,0.24054 0.945808,0.521573 1.210375,0.858265 0.360763,0.31269 0.719606,0.765216 1.056326,1.342415 0.336711,0.577254 0.673548,1.310813 1.03432,2.200681 l 7.592347,19.850136 8.318571,-0.638198 5.677755,-12.609898 4.577415,11.795647 6.161905,-0.48415 -7.438299,-18.705782 c -0.168393,-0.288589 -0.259997,-0.609556 -0.308095,-0.946293 -0.02408,-0.336692 -0.02609,-0.655598 0.02201,-0.968299 0.07213,-0.312635 0.165801,-0.595719 0.286089,-0.836259 0.120217,-0.264531 0.273786,-0.44985 0.418129,-0.594183 0.360729,-0.264531 0.829132,-0.473898 1.430442,-0.594184 0.601247,-0.120221 1.354774,-0.193984 2.244694,-0.242075 l 0,-1.342415 -15.734864,0 0,1.342415 c 1.418998,0.07218 2.395714,0.259542 2.948912,0.572177 0.937971,0.553207 1.711456,1.529927 2.288707,2.948912 l 1.870578,4.907517 -7.108197,15.514796 -7.152211,-18.969864 c -0.432932,-1.130385 -0.638209,-2.033376 -0.638197,-2.706837 0.02404,-0.673396 0.229316,-1.219607 0.638197,-1.628504 0.432909,-0.360738 1.300073,-0.566003 2.574796,-0.638197 l 0,-1.342415 -13.930306,0 z m 41.878946,0 0,1.342415 c 0.7696,3.3e-5 1.39156,0.07579 1.84857,0.220068 0.45693,0.120286 0.79377,0.289729 1.03432,0.506157 0.24046,0.192447 0.41195,0.377755 0.48415,0.594183 0.0721,0.192437 0.10999,0.36189 0.11003,0.506157 -4e-5,0.745622 -0.26315,1.800127 -0.79224,3.146973 l -6.756089,17.89153 2.706839,-0.198061 7.1082,-18.485714 c 1.0101,-2.501288 2.59085,-3.892649 4.73146,-4.181293 l 0,-1.342415 -10.47524,0 z m 21.39061,1.562483 c 0.60127,3.3e-5 1.3169,0.111624 2.13466,0.352109 0.81772,0.24054 1.60913,0.693066 2.35473,1.342415 0.74557,0.649403 1.38544,1.552406 1.91459,2.706837 0.5291,1.130428 0.79223,2.595497 0.79225,4.423367 l -15.38276,0 c 0.1443,-1.418995 0.48523,-2.678799 0.99031,-3.78517 0.50506,-1.106328 1.12499,-2.027236 1.87058,-2.772857 0.74557,-0.745557 1.5728,-1.309673 2.48676,-1.694524 0.93797,-0.384785 1.87682,-0.572144 2.83888,-0.572177 z m 13.5782,18.683776 c -0.12142,0.318722 -0.2472,0.626495 -0.37412,0.924285 l 1.49647,-0.110034 c 0.005,-0.02964 0.0176,-0.05838 0.022,-0.08803 l -1.14436,-0.726224 z"
         style="font-size:67.44394684px;font-style:normal;font-variant:normal;font-weight:normal;font-stretch:normal;text-align:start;line-height:125%;letter-spacing:-5.20164204px;writing-mode:lr-tb;text-anchor:start;opacity:0.3;fill:#ffffff;fill-opacity:1;stroke:none;font-family:Doulos SIL;-inkscape-font-specification:Doulos SIL" />
    </g>
  </g>
</svg>
