<?xml version="1.0" encoding="UTF-8" standalone="no"?>
<!-- Created with Inkscape (http://www.inkscape.org/) -->

<svg
   xmlns:dc="http://purl.org/dc/elements/1.1/"
   xmlns:cc="http://creativecommons.org/ns#"
   xmlns:rdf="http://www.w3.org/1999/02/22-rdf-syntax-ns#"
   xmlns:svg="http://www.w3.org/2000/svg"
   xmlns="http://www.w3.org/2000/svg"
   xmlns:xlink="http://www.w3.org/1999/xlink"
   xmlns:sodipodi="http://sodipodi.sourceforge.net/DTD/sodipodi-0.dtd"
   xmlns:inkscape="http://www.inkscape.org/namespaces/inkscape"
   width="353.78134"
   height="85"
   id="svg4247"
   version="1.1"
   inkscape:version="0.47 r22583"
   sodipodi:docname="web2cms-logo-2.svg"
   inkscape:export-filename="/home/samu/projects/web2py_cms/artwork/web2cms-logo-2.png"
   inkscape:export-xdpi="90"
   inkscape:export-ydpi="90">
  <defs
     id="defs4249">
    <inkscape:perspective
       sodipodi:type="inkscape:persp3d"
       inkscape:vp_x="0 : 526.18109 : 1"
       inkscape:vp_y="0 : 1000 : 0"
       inkscape:vp_z="744.09448 : 526.18109 : 1"
       inkscape:persp3d-origin="372.04724 : 350.78739 : 1"
       id="perspective4255" />
    <inkscape:perspective
       id="perspective4265"
       inkscape:persp3d-origin="0.5 : 0.33333333 : 1"
       inkscape:vp_z="1 : 0.5 : 1"
       inkscape:vp_y="0 : 1000 : 0"
       inkscape:vp_x="0 : 0.5 : 1"
       sodipodi:type="inkscape:persp3d" />
    <linearGradient
       inkscape:collect="always"
       id="linearGradient3641">
      <stop
         style="stop-color:#333333;stop-opacity:1;"
         offset="0"
         id="stop3643" />
      <stop
         style="stop-color:#333333;stop-opacity:0;"
         offset="1"
         id="stop3645" />
    </linearGradient>
    <mask
       maskUnits="userSpaceOnUse"
       id="mask4241">
      <rect
         style="fill:url(#linearGradient4245);fill-opacity:1;stroke:none"
         id="rect4243"
         width="372.18439"
         height="45.608387"
         x="66.142136"
         y="862.85754" />
    </mask>
    <linearGradient
       inkscape:collect="always"
       xlink:href="#linearGradient4233"
       id="linearGradient4245"
       gradientUnits="userSpaceOnUse"
       x1="224.15285"
       y1="863.03436"
       x2="224.15285"
       y2="881.59589" />
    <linearGradient
       inkscape:collect="always"
       id="linearGradient4233">
      <stop
         style="stop-color:#ffffff;stop-opacity:1;"
         offset="0"
         id="stop4235" />
      <stop
         style="stop-color:#ffffff;stop-opacity:0;"
         offset="1"
         id="stop4237" />
    </linearGradient>
    <linearGradient
       inkscape:collect="always"
       xlink:href="#linearGradient3641"
       id="linearGradient4358"
       gradientUnits="userSpaceOnUse"
       gradientTransform="matrix(1,0,0,-0.53329775,-13.5,1160.6072)"
       x1="333.75"
       y1="538.36218"
       x2="333.75"
       y2="497.12424" />
    <linearGradient
       inkscape:collect="always"
       xlink:href="#linearGradient3641"
       id="linearGradient4360"
       gradientUnits="userSpaceOnUse"
       gradientTransform="translate(-13.5,304.5)"
       x1="333.75"
       y1="538.36218"
       x2="333.75"
       y2="497.12424" />
  </defs>
  <sodipodi:namedview
     id="base"
     pagecolor="#ffffff"
     bordercolor="#666666"
     borderopacity="1.0"
     inkscape:pageopacity="0.0"
     inkscape:pageshadow="2"
     inkscape:zoom="1.979899"
     inkscape:cx="174.094"
     inkscape:cy="74.626224"
     inkscape:document-units="px"
     inkscape:current-layer="layer1"
     showgrid="false"
     inkscape:window-width="1244"
     inkscape:window-height="792"
     inkscape:window-x="29"
     inkscape:window-y="68"
     inkscape:window-maximized="0" />
  <metadata
     id="metadata4252">
    <rdf:RDF>
      <cc:Work
         rdf:about="">
        <dc:format>image/svg+xml</dc:format>
        <dc:type
           rdf:resource="http://purl.org/dc/dcmitype/StillImage" />
        <dc:title></dc:title>
      </cc:Work>
    </rdf:RDF>
  </metadata>
  <g
     inkscape:label="Layer 1"
     inkscape:groupmode="layer"
     id="layer1"
     transform="translate(-378.95991,-673.78274)">
    <g
       id="g4348"
       transform="translate(0,12.586297)">
      <g
         style="opacity:0.3"
         mask="url(#mask4241)"
         id="g4226"
         transform="translate(299.55366,-137.5088)">
        <path
           id="path4199"
           d="m 193.1875,896.29154 -0.25,-0.63329 -12.3125,-30.88128 -0.375,-0.9666 1.84375,0 11.125,0 1.21875,0 0.25,0.63329 0.1875,0.44997 c 2.28245,-1.34263 5.62986,-2.04986 9.78125,-2.04986 6.68189,0 12.95199,2.00093 17.53125,4.99967 4.57926,2.99873 7.53125,7.02593 7.53125,11.24925 0,2.79333 -1.43287,5.17861 -4.125,6.88287 -2.69213,1.70426 -6.65464,2.68315 -11.25,2.68315 -4.0857,0 -7.65227,-0.63542 -10.75,-1.84987 l 3.40625,8.5161 0.375,0.9666 -1.84375,0 -11.125,0 -1.21875,0 z m 66.1875,-0.21665 c -6.45756,0 -11.97795,-1.0686 -16.09375,-3.0998 -4.1158,-2.0312 -6.77261,-4.9917 -7.84375,-8.68275 l -0.28125,-0.91661 1.75,0 10.65625,0 1.3125,0 0.1875,0.69996 c 0.49084,1.95314 1.55437,3.38738 3,4.29971 1.44563,0.91233 3.2066,1.34991 5.5625,1.34991 1.86722,0 3.15833,-0.26701 4,-0.68329 0.84167,-0.41627 1.34375,-1.01284 1.34375,-1.89987 0,-1.71709 -1.43495,-3.56507 -3.84375,-4.84968 l 0,-0.0166 -0.0312,0 c -2.33417,-1.32512 -4.80422,-2.24724 -13.84375,-5.24965 -11.18753,-3.5626 -15.50594,-6.50818 -18.34375,-12.21585 l -0.5,-0.99993 1.9375,0 38.28125,0 1.21875,0 0.25,0.63329 2.0625,5.29965 0.375,0.9666 -1.84375,0 -20.5625,0 c 0.49522,0.25226 0.98497,0.49744 1.71875,0.79994 1.91898,0.79111 4.83505,1.82114 9.53125,3.39978 0.009,0.003 0.0222,-0.003 0.0312,0 6.61383,2.21047 9.74384,3.51357 12.40625,5.19965 3.54822,2.25269 5.5,5.02079 5.5,7.88281 0,2.47688 -1.70988,4.5639 -4.875,5.96627 -3.16512,1.40237 -7.655,2.11652 -13.0625,2.11652 z m -96.0625,-7.41618 c -6.58973,0 -13.272,-1.35186 -17.375,-3.63309 -5.43621,-3.03501 -9.15625,-8.10141 -9.15625,-12.58249 0,-2.81119 1.86859,-5.23173 5.125,-6.93287 3.25641,-1.70115 7.85817,-2.66649 13.15625,-2.66649 10.13818,0 18.72392,2.92748 23.3125,7.86614 l 1.0625,1.14992 -2.40625,0 -10.9375,0 -0.90625,0 -0.40625,-0.4333 c -1.29041,-1.30753 -4.30239,-2.23318 -7.59375,-2.23318 -1.9412,0 -3.39733,0.32931 -4.40625,0.84994 -1.00892,0.52063 -1.625,1.25211 -1.625,2.23318 0,0.24095 0.0791,0.73818 0.125,1.1166 l 27.4375,0 1.15625,0 0.28125,0.59996 c 0.98188,1.96362 1.46875,3.79364 1.46875,5.48296 0,2.1435 -1.44169,4.28117 -3.875,5.94961 l 0,0.0166 -0.0312,0 c -3.18678,2.12438 -8.28258,3.21645 -14.40625,3.21645 z m 138.4375,0 c -7.80299,0 -14.20914,-1.44658 -18.625,-4.29971 -4.99187,-3.15848 -8.34375,-8.20848 -8.34375,-12.46583 0,-2.30453 1.56498,-4.53845 4.375,-6.18293 l 0,-0.0166 c 3.19815,-1.93578 8.05118,-2.84981 14.1875,-2.84981 10.83378,0 19.3264,3.53451 22.8125,9.46603 l 0.59375,1.03327 -2.03125,0 -10.65625,0 -0.96875,0 -0.40625,-0.48331 c -1.18044,-1.44182 -2.36628,-2.35843 -3.59375,-2.8998 -1.22747,-0.54137 -2.51221,-0.76662 -4.40625,-0.76662 -2.10124,0 -3.34563,0.28034 -4.1875,0.79995 -0.84187,0.51961 -1.375,1.40067 -1.375,2.74982 0,2.11366 0.99917,4.53215 2.78125,6.4329 1.03847,1.16697 2.18051,1.94759 3.46875,2.43317 1.28824,0.48558 2.77148,0.71662 4.71875,0.71662 2.25504,0 3.62629,-0.39852 4.34375,-1.0166 0.4969,-0.50576 0.57967,-0.80725 0.65625,-2.39984 l 0.0312,-0.78328 1.46875,0 10.65625,0 1.3125,0 0.1875,0.69995 c 0.23937,1.02124 0.3125,1.45985 0.3125,1.93321 0,1.9946 -1.52682,3.89737 -4.25,5.34964 -3.29116,1.75517 -7.49297,2.54983 -13.0625,2.54983 z m 48.75,0 c -3.71581,-0.10035 -6.88832,-0.83766 -10.09375,-2.24985 l 0.34375,0.91661 0.375,0.9666 -1.84375,0 -11.03125,0 -1.21875,0 -0.25,-0.63329 -9.125,-22.88181 -0.375,-0.9666 1.84375,0 11.125,0 1.21875,0 0.25,0.63329 5.46875,13.73242 c 1.08847,2.70891 4.04114,4.14972 7.90625,4.14972 1.20288,0 2.06727,-0.19099 2.625,-0.46663 0.55773,-0.27564 0.875,-0.64906 0.875,-1.19992 0,-0.45101 -0.0734,-0.78713 -0.21875,-1.21659 -0.002,-0.006 0.002,-0.0109 0,-0.0166 L 342.5,864.777 l -0.375,-0.9666 1.84375,0 11.125,0 1.21875,0 0.25,0.63329 5.46875,13.73242 c 0.5458,1.39716 1.60566,2.43675 3,3.11646 1.39434,0.6797 3.13617,1.03326 5.3125,1.03326 1.20033,0 1.90282,-0.15693 2.34375,-0.38331 0.44093,-0.22638 0.75,-0.57544 0.75,-1.18325 0,-0.43161 -0.12786,-1.04595 -0.34375,-1.58323 L 367.375,864.777 367,863.8104 l 1.84375,0 11.09375,0 1.21875,0 0.25,0.63329 6.125,15.33231 c 0.48331,1.24578 0.65625,1.93214 0.65625,2.74982 0,1.84846 -1.2003,3.43915 -3.46875,4.51636 -2.26845,1.07722 -5.47846,1.61656 -9.3125,1.61656 -5.12301,0 -9.46021,-1.00679 -13.5625,-2.98313 -1.91345,1.83433 -5.73652,2.98313 -10.3125,2.98313 -0.27361,0 -0.61477,0.0113 -1.03125,0 z m 65.15625,0 c -6.53934,0 -12.21281,-0.91496 -16,-2.69982 -3.72637,-1.75619 -6.15625,-4.3144 -6.15625,-6.73288 0,-1.38134 1.03334,-2.64481 2.96875,-3.63309 1.93541,-0.98828 4.69483,-1.74739 8.3125,-2.38318 l 6.28125,-1.06659 c 2.46808,-0.41785 3.90902,-0.73407 4.5,-0.94994 0.59098,-0.21587 0.5,-0.14648 0.5,-0.4833 0,-0.32012 -0.34551,-0.64194 -1.5,-0.9666 -1.15449,-0.32466 -3.01419,-0.54996 -5.25,-0.54996 -2.56081,0 -4.78372,0.33779 -5.875,0.76661 -0.81767,0.37877 -0.99733,0.53393 -1.0625,1.33325 l -0.0625,0.76661 -1.4375,0 -10.875,0 -1.21875,0 -0.25,-0.64996 c -0.24132,-0.64347 -0.34375,-0.98001 -0.34375,-1.41657 0,-2.25167 2.61611,-4.45382 6.5625,-5.64962 l 0,0.0166 c 3.38599,-1.06492 7.41458,-1.51657 12.5,-1.51657 6.99119,0 12.83466,0.89962 17,2.58316 4.16534,1.68355 6.5625,4.18131 6.5625,7.1162 0,1.44373 -0.95782,2.74876 -2.8125,3.74975 -1.85468,1.00098 -4.49818,1.71405 -7.9375,2.26651 l -0.0312,0 -7.59375,1.18326 c -0.0145,0.002 -0.0168,-0.002 -0.0312,0 -1.94898,0.30685 -3.16106,0.58336 -3.65625,0.76661 -0.49886,0.18461 -0.40625,0.12896 -0.40625,0.36664 0,0.38463 0.28944,0.66152 1.1875,0.94994 0.89806,0.28842 2.40755,0.49997 4.3125,0.49997 2.00234,0 3.48809,-0.21109 4.34375,-0.4833 0.85566,-0.27222 1.125,-0.51204 1.125,-0.91661 0,-0.152 -0.0554,-0.25799 -0.21875,-0.64996 l -0.40625,-0.9666 1.875,0 10.75,0 1.21875,0 0.25,0.63329 c 0.33275,0.79853 0.40625,1.28237 0.40625,1.78322 0,2.13047 -1.7698,3.95942 -4.875,5.14965 -3.1052,1.19023 -7.43608,1.78322 -12.65625,1.78322 z m -336.25,-0.36664 0.09375,-0.84994 2.9375,-22.88181 0.09375,-0.74995 1.40625,0 11.4375,0 0.96875,0 0.40625,0.4833 10.40625,12.69916 0.3125,-12.39918 0.0312,-0.78328 1.46875,0 11.5,0 0.9375,0 0.40625,0.44997 20.96875,22.88181 1.0625,1.14992 -2.40625,0 -11.5,0 -1,0 -0.375,-0.4833 -10.0625,-12.44917 0,12.13252 0,0.79995 -1.5,0 -11.4375,0 -1,0 -0.375,-0.4833 -9.84375,-12.49917 -0.3125,12.19919 -0.0312,0.78328 -1.46875,0 -11.53125,0 -1.59375,0 z m 82.5625,-5.96627 c 2.28615,0 3.94294,-0.55877 4.71875,-1.4499 l 0.0312,0 c 0.45615,-0.52127 0.55079,-0.83097 0.5625,-1.94987 l -13.875,0 c 0.42983,0.62323 0.86549,1.12919 1.46875,1.5499 1.59472,1.13395 4.39651,1.84987 7.09375,1.84987 z m 47.90625,0 c 1.72672,0 2.94821,-0.33516 3.90625,-1.0166 0.95804,-0.68143 1.59375,-1.76219 1.59375,-3.18312 0,-2.41716 -1.43659,-4.71 -3.59375,-6.34957 -2.15716,-1.63957 -4.94701,-2.58316 -7.6875,-2.58316 -1.68025,0 -2.93924,0.33957 -3.90625,0.99993 -0.96701,0.66036 -1.59375,1.68117 -1.59375,2.98313 0,2.48681 1.41207,4.83969 3.5625,6.51624 2.15043,1.67654 4.94349,2.63315 7.71875,2.63315 z"
           style="font-size:79.40666199px;font-style:italic;font-variant:normal;font-weight:bold;font-stretch:normal;text-indent:0;text-align:start;text-decoration:none;line-height:125%;letter-spacing:normal;word-spacing:normal;text-transform:none;direction:ltr;block-progression:tb;writing-mode:lr-tb;text-anchor:start;color:#000000;fill:#ffffff;fill-opacity:1;fill-rule:nonzero;stroke:none;stroke-width:3;marker:none;visibility:visible;display:inline;overflow:visible;enable-background:accumulate;font-family:Nimbus Sans L;-inkscape-font-specification:Nimbus Sans L Bold Italic" />
        <path
           id="path4201"
           d="m 194.40625,895.49159 -12.3125,-30.88127 11.125,0 0.9375,2.33318 c 1.74694,-2.24441 5.17975,-3.29978 10.5,-3.29978 12.22861,0 23.5625,7.40297 23.5625,15.44897 0,5.29342 -5.4579,8.76608 -13.875,8.76608 -5.39965,0 -9.6142,-1.04636 -13.1875,-3.33311 l 4.375,10.96593 -11.125,0 z m 64.96875,-0.21665 c -12.30802,0 -20.40418,-3.9849 -22.46875,-11.09926 l 10.65625,0 c 1.03229,4.10769 4.58344,6.34958 10.0625,6.34958 4.28795,0 6.84375,-1.26574 6.84375,-3.38311 0,-1.94798 -1.58143,-3.9765 -4.28125,-5.41631 -2.4616,-1.39746 -5.1039,-2.37631 -14.15625,-5.38297 -11.03751,-3.51483 -14.90827,-6.14271 -17.6875,-11.73255 l 38.28125,0 2.0625,5.29964 -23.84375,0 c 1.98517,1.56685 4.30061,2.50691 13.75,5.68296 6.59074,2.20206 9.52149,3.4238 12.0625,5.033 3.33508,2.11736 5.15625,4.69829 5.15625,7.36617 0,4.57352 -6.11464,7.28285 -16.4375,7.28285 z m -96.0625,-7.41617 c -6.19371,0 -12.54914,-1.30809 -16.28125,-3.38311 -5.08203,-2.83727 -8.75,-7.79779 -8.75,-12.03253 0,-5.25107 6.85543,-8.79941 16.78125,-8.79941 9.6082,0 17.60139,2.71561 21.96875,7.41617 l -10.9375,0 c -1.58813,-1.6092 -5.09474,-2.66649 -8.90625,-2.66649 -4.52618,0 -7.53125,1.55397 -7.53125,3.88307 0,0.38113 -0.0195,0.73082 0.21875,1.91654 l 28.84375,0 c 0.95288,1.90564 1.40625,3.67378 1.40625,5.28298 0,1.94799 -1.33911,3.9418 -3.5625,5.46631 -2.85863,1.90563 -7.45332,2.91647 -13.25,2.91647 z m 138.4375,0 c -7.46422,0 -13.3396,-1.34852 -17.46875,-4.0164 -4.68499,-2.96432 -8,-7.9262 -8,-11.9492 0,-2.11737 1.42774,-4.18414 3.96875,-5.66629 2.85864,-1.73624 7.21767,-2.58316 13.09375,-2.58316 10.24345,0 18.03993,3.22486 21.375,8.8994 l -10.65625,0 c -2.4616,-3.00666 -5.08705,-4.14972 -9.375,-4.14972 -4.7644,0 -7.0625,1.42774 -7.0625,4.34971 0,2.2444 1.03174,4.75021 2.9375,6.78288 2.22338,2.49849 5.16389,3.59976 9.53125,3.59976 2.62042,0 4.59272,-0.51061 5.625,-1.39991 0.63525,-0.63521 0.79559,-1.14827 0.875,-2.79981 l 10.65625,0 c 0.23822,1.01634 0.3125,1.40974 0.3125,1.83321 0,1.77859 -1.35089,3.47024 -3.8125,4.78302 -3.01745,1.60919 -6.67976,2.31651 -12,2.31651 z m 48.8125,0 c -4.68006,-0.12639 -8.23282,-1.21921 -12.625,-3.79975 l 1.34375,3.4331 -11.03125,0 -9.125,-22.8818 11.125,0 5.46875,13.73242 c 1.1911,2.96431 4.76942,4.78301 9.375,4.78301 3.01745,0 5,-0.98435 5,-2.4665 0,-0.50817 -0.0912,-0.91742 -0.25,-1.38324 l -5.875,-14.66569 11.125,0 5.46875,13.73242 c 1.1911,3.04901 4.77864,4.78301 9.78125,4.78301 2.93805,0 4.59375,-0.842 4.59375,-2.36651 0,-0.50816 -0.13678,-1.15702 -0.375,-1.74988 l -5.71875,-14.39904 11.09375,0 6.125,15.33231 c 0.47644,1.22807 0.625,1.82091 0.625,2.58316 0,3.34544 -4.13466,5.33298 -11.28125,5.33298 -5.39965,0 -9.66389,-1.05264 -14.03125,-3.46644 -1.11169,2.11737 -4.92054,3.46644 -9.84375,3.46644 -0.32259,0 -0.65675,0.008 -0.96875,0 z m 65.09375,0 c -6.27312,0 -11.58552,-0.89064 -15,-2.49984 C 397.24177,883.74973 395,881.34338 395,879.22601 c 0,-2.37145 3.26222,-4.02158 10.25,-5.24965 l 6.28125,-1.0666 c 5.00262,-0.84694 6.03125,-1.22586 6.03125,-2.19985 0,-1.35512 -3.4062,-2.31651 -8.25,-2.31651 -2.77923,0 -5.24127,0.32374 -6.75,0.9166 -1.11169,0.50817 -1.60809,0.97589 -1.6875,1.94987 l -10.875,0 c -0.23822,-0.63521 -0.3125,-0.88545 -0.3125,-1.26658 0,-1.90563 2.31861,-3.89098 5.8125,-4.94967 3.09686,-0.97399 6.8268,-1.3999 11.75,-1.3999 13.49912,0 22.0625,3.47894 22.0625,8.8994 0,2.54085 -3.09675,4.19097 -9.6875,5.24965 L 412,878.97603 c -4.04973,0.63521 -5.15625,1.05292 -5.15625,1.89987 0,1.35511 2.79145,2.24985 7,2.24985 4.36736,0 6.96875,-0.84474 6.96875,-2.19985 0,-0.25409 -0.0912,-0.43549 -0.25,-0.81662 l 10.75,0 c 0.31763,0.76226 0.375,1.15074 0.375,1.61656 0,3.81126 -6.02602,6.13293 -16.03125,6.13293 z M 81,887.49212 l 2.9375,-22.8818 11.4375,0 13.1875,16.09892 0.40625,-16.09892 11.5,0 20.96875,22.8818 -11.5,0 L 117,871.47653 l 0,16.01559 -11.4375,0 -12.625,-16.01559 -0.40625,16.01559 -11.53125,0 z m 80.96875,-4.36637 c 2.77923,0 5.06147,-0.73082 6.09375,-1.91654 0.55585,-0.63521 0.71875,-1.09472 0.71875,-2.44984 l 0,-0.63329 -17.46875,0 c 0.71466,1.35512 1.34271,2.11324 2.375,2.83315 1.90575,1.35511 5.10499,2.16652 8.28125,2.16652 z m 47.90625,0 c 4.28795,0 7,-1.90831 7,-4.99967 0,-5.16637 -6.03169,-9.73268 -12.78125,-9.73268 -4.20855,0 -7,1.90339 -7,4.78301 0,5.29342 5.95228,9.94934 12.78125,9.94934 z"
           style="font-size:79.40666199px;font-style:italic;font-variant:normal;font-weight:bold;font-stretch:normal;text-align:start;line-height:125%;writing-mode:lr-tb;text-anchor:start;fill:#000000;fill-opacity:1;stroke:none;font-family:Nimbus Sans L;-inkscape-font-specification:Nimbus Sans L Bold Italic" />
        <path
           id="path4203"
           d="M 194.40625,895.49159 186,874.37633 c 3.74026,-0.0278 7.47924,-0.0587 11.21875,-0.0833 0.76318,4.81398 6.31309,8.83274 12.65625,8.83274 4.28796,0 7,-1.90831 7,-4.99967 0,-1.38035 -0.42737,-2.71328 -1.1875,-3.93307 3.71283,-0.0191 7.41294,-0.0341 11.125,-0.05 0.91625,1.58042 1.40625,3.2484 1.40625,4.94967 0,5.29342 -5.4579,8.76608 -13.875,8.76608 -5.39965,0 -9.6142,-1.04635 -13.1875,-3.33311 l 4.375,10.96594 -11.125,0 z m 64.96875,-0.21665 c -12.30802,0 -20.40418,-3.9849 -22.46875,-11.09926 l 10.65625,0 c 1.03229,4.10769 4.58345,6.34958 10.0625,6.34958 4.28796,0 6.84375,-1.26574 6.84375,-3.38311 0,-1.94798 -1.58143,-3.9765 -4.28125,-5.41631 -2.4616,-1.39746 -5.1039,-2.37631 -14.15625,-5.38297 -2.44524,-0.77867 -4.50314,-1.51657 -6.3125,-2.24985 4.80858,-0.0155 9.63027,-0.0236 14.4375,-0.0333 1.32582,0.461 2.64296,0.93006 4.4375,1.53323 6.59075,2.20206 9.52149,3.4238 12.0625,5.033 3.33508,2.11736 5.15625,4.69829 5.15625,7.36617 0,4.57352 -6.11464,7.28285 -16.4375,7.28285 z m -96.0625,-7.41617 c -6.19371,0 -12.54914,-1.30809 -16.28125,-3.38311 -4.16121,-2.32318 -7.38218,-6.06124 -8.40625,-9.66602 13.39865,-0.14575 26.79797,-0.27645 40.1875,-0.38331 0.87554,1.81649 1.3125,3.50715 1.3125,5.04966 0,1.94798 -1.33912,3.9418 -3.5625,5.46631 -2.85864,1.90563 -7.45332,2.91647 -13.25,2.91647 z m 138.4375,0 c -7.46422,0 -13.33961,-1.34852 -17.46875,-4.0164 -3.88614,-2.45886 -6.82321,-6.28591 -7.71875,-9.81601 3.72928,-4.8e-4 7.45906,0.0135 11.1875,0.0166 0.31296,1.87536 1.26863,3.83627 2.8125,5.48296 2.22338,2.4985 5.16389,3.59976 9.53125,3.59976 2.62042,0 4.59271,-0.51061 5.625,-1.3999 0.63525,-0.63521 0.79559,-1.14827 0.875,-2.79982 l 10.65625,0 c 0.23822,1.01634 0.3125,1.40974 0.3125,1.83321 0,1.77859 -1.3509,3.47025 -3.8125,4.78302 -3.01745,1.6092 -6.67976,2.31651 -12,2.31651 z m 48.8125,0 c -4.68007,-0.12639 -8.23282,-1.21921 -12.625,-3.79975 l 1.34375,3.4331 -11.03125,0 -5.34375,-13.36577 c 3.72113,0.0149 7.43602,0.0312 11.15625,0.05 l 1.65625,4.16639 c 1.1911,2.96431 4.76942,4.78301 9.375,4.78301 3.01745,0 5,-0.98434 5,-2.4665 0,-0.50817 -0.0912,-0.91742 -0.25,-1.38324 l -2,-5.01633 c 3.70862,0.0235 7.4173,0.0393 11.125,0.0667 l 1.59375,4.0164 c 1.1911,3.04901 4.77864,4.78301 9.78125,4.78301 2.93804,0 4.59375,-0.842 4.59375,-2.36651 0,-0.50816 -0.13678,-1.15702 -0.375,-1.74988 l -1.8125,-4.583 c 3.72209,0.0325 7.43512,0.0801 11.15625,0.11666 l 2.15625,5.39964 c 0.47644,1.22807 0.625,1.82091 0.625,2.58316 0,3.34544 -4.13466,5.33298 -11.28125,5.33298 -5.39965,0 -9.66389,-1.05264 -14.03125,-3.46644 -1.11169,2.11737 -4.92054,3.46644 -9.84375,3.46644 -0.32259,0 -0.65675,0.008 -0.96875,0 z m 65.09375,0 c -6.27312,0 -11.58552,-0.89064 -15,-2.49984 C 397.24177,883.74973 395,881.34338 395,879.22601 c 0,-1.91384 2.13374,-3.3678 6.625,-4.4997 8.77856,0.10193 17.57077,0.22427 26.34375,0.34998 -1.49511,1.18225 -4.25881,2.06031 -8.34375,2.71648 L 412,878.97603 c -4.04974,0.63521 -5.15625,1.05292 -5.15625,1.89987 0,1.35511 2.79145,2.24985 7,2.24985 4.36736,0 6.96875,-0.84474 6.96875,-2.19985 0,-0.25409 -0.0912,-0.43549 -0.25,-0.81662 l 10.75,0 c 0.31763,0.76226 0.375,1.15074 0.375,1.61656 0,3.81126 -6.02602,6.13293 -16.03125,6.13293 z M 81,887.49212 l 1.53125,-11.9492 c 3.438717,-0.0502 6.87431,-0.1187 10.3125,-0.16665 l -0.3125,12.11585 -11.53125,0 z m 24.5625,0 -9.59375,-12.14918 c 2.69815,-0.0371 5.39594,-0.0643 8.09375,-0.1 l 4.5,5.4663 0.125,-5.53296 c 2.77049,-0.0358 5.54237,-0.0658 8.3125,-0.1 l 0,12.41583 -11.4375,0 z m 24.375,0 -10.0625,-12.44916 c 3.34293,-0.0406 6.68886,-0.095 10.03125,-0.13333 l 11.53125,12.58249 -11.5,0 z m 32.03125,-4.36637 c 2.77923,0 5.06146,-0.73082 6.09375,-1.91654 0.55585,-0.63521 0.71875,-1.09472 0.71875,-2.44984 l 0,-0.63329 -17.46875,0 c 0.71466,1.35512 1.34271,2.11324 2.375,2.83315 1.90576,1.35511 5.10499,2.16652 8.28125,2.16652 z"
           style="font-size:79.40666199px;font-style:italic;font-variant:normal;font-weight:bold;font-stretch:normal;text-align:start;line-height:125%;writing-mode:lr-tb;text-anchor:start;fill:url(#linearGradient4358);fill-opacity:1;stroke:none;font-family:Nimbus Sans L;-inkscape-font-specification:Nimbus Sans L Bold Italic" />
      </g>
      <g
         id="g4221"
         transform="translate(299.55366,-137.5088)">
        <path
           style="font-size:79.40666199px;font-style:italic;font-variant:normal;font-weight:bold;font-stretch:normal;text-indent:0;text-align:start;text-decoration:none;line-height:125%;letter-spacing:normal;word-spacing:normal;text-transform:none;direction:ltr;block-progression:tb;writing-mode:lr-tb;text-anchor:start;color:#000000;fill:#ffffff;fill-opacity:1;fill-rule:nonzero;stroke:none;stroke-width:3;marker:none;visibility:visible;display:inline;overflow:visible;enable-background:accumulate;font-family:Nimbus Sans L;-inkscape-font-specification:Nimbus Sans L Bold Italic"
           d="m 193.1875,800.125 -0.25,1.1875 -12.3125,57.90625 -0.375,1.8125 1.84375,0 11.125,0 1.21875,0 0.25,-1.1875 L 194.875,859 c 2.28245,2.51761 5.62986,3.84375 9.78125,3.84375 6.68189,0 12.95199,-3.75199 17.53125,-9.375 4.57926,-5.62301 7.53125,-13.17451 7.53125,-21.09375 0,-5.23785 -1.43287,-9.71055 -4.125,-12.90625 -2.69213,-3.1957 -6.65464,-5.03125 -11.25,-5.03125 -4.0857,0 -7.65227,1.1915 -10.75,3.46875 L 207,801.9375 l 0.375,-1.8125 -1.84375,0 -11.125,0 -1.21875,0 z m 66.1875,0.40625 c -6.45756,0 -11.97795,2.00375 -16.09375,5.8125 -4.1158,3.80875 -6.77261,9.36006 -7.84375,16.28125 l -0.28125,1.71875 1.75,0 10.65625,0 1.3125,0 0.1875,-1.3125 c 0.49084,-3.66238 1.55437,-6.35177 3,-8.0625 1.44563,-1.71073 3.2066,-2.53125 5.5625,-2.53125 1.86722,0 3.15833,0.50068 4,1.28125 0.84167,0.78057 1.34375,1.8992 1.34375,3.5625 0,3.21975 -1.43495,6.68495 -3.84375,9.09375 l 0,0.0312 -0.0312,0 c -2.33417,2.48477 -4.80422,4.21387 -13.84375,9.84375 -11.18753,6.68032 -15.50594,12.20366 -18.34375,22.90625 l -0.5,1.875 1.9375,0 38.28125,0 1.21875,0 0.25,-1.1875 2.0625,-9.9375 0.375,-1.8125 -1.84375,0 -20.5625,0 c 0.49522,-0.47303 0.98497,-0.93277 1.71875,-1.5 1.91898,-1.48342 4.83505,-3.41485 9.53125,-6.375 0.009,-0.006 0.0222,0.006 0.0312,0 6.61383,-4.14491 9.74384,-6.58838 12.40625,-9.75 3.54822,-4.22407 5.5,-9.4146 5.5,-14.78125 0,-4.64446 -1.70988,-8.55788 -4.875,-11.1875 -3.16512,-2.62962 -7.655,-3.96875 -13.0625,-3.96875 z m -96.0625,13.90625 c -6.58973,0 -13.272,2.53491 -17.375,6.8125 -5.43621,5.69102 -9.15625,15.19117 -9.15625,23.59375 0,5.27133 1.86859,9.81014 5.125,13 3.25641,3.18986 7.85817,5 13.15625,5 10.13818,0 18.72392,-5.4894 23.3125,-14.75 l 1.0625,-2.15625 -2.40625,0 -10.9375,0 -0.90625,0 -0.40625,0.8125 c -1.29041,2.45178 -4.30239,4.1875 -7.59375,4.1875 -1.9412,0 -3.39733,-0.6175 -4.40625,-1.59375 -1.00892,-0.97625 -1.625,-2.34786 -1.625,-4.1875 0,-0.4518 0.0791,-1.38417 0.125,-2.09375 l 27.4375,0 1.15625,0 0.28125,-1.125 c 0.98188,-3.68205 1.46875,-7.11355 1.46875,-10.28125 0,-4.01932 -1.44169,-8.02772 -3.875,-11.15625 l 0,-0.0312 -0.0312,0 c -3.18678,-3.98349 -8.28258,-6.03125 -14.40625,-6.03125 z m 138.4375,0 c -7.80299,0 -14.20914,2.71252 -18.625,8.0625 -4.99187,5.92255 -8.34375,15.39193 -8.34375,23.375 0,4.32127 1.56498,8.51016 4.375,11.59375 l 0,0.0312 c 3.19815,3.62983 8.05118,5.34375 14.1875,5.34375 10.83378,0 19.3264,-6.62765 22.8125,-17.75 l 0.59375,-1.9375 -2.03125,0 -10.65625,0 -0.96875,0 -0.40625,0.90625 c -1.18044,2.7036 -2.36628,4.42236 -3.59375,5.4375 -1.22747,1.01514 -2.51221,1.4375 -4.40625,1.4375 -2.10124,0 -3.34563,-0.52567 -4.1875,-1.5 -0.84187,-0.97433 -1.375,-2.62644 -1.375,-5.15625 0,-3.96339 0.99917,-8.49835 2.78125,-12.0625 1.03847,-2.18822 2.18051,-3.65198 3.46875,-4.5625 1.28824,-0.91052 2.77148,-1.34375 4.71875,-1.34375 2.25504,0 3.62629,0.74727 4.34375,1.90625 0.4969,0.94836 0.57967,1.5137 0.65625,4.5 l 0.0312,1.46875 1.46875,0 10.65625,0 1.3125,0 0.1875,-1.3125 c 0.23937,-1.91495 0.3125,-2.7374 0.3125,-3.625 0,-3.74013 -1.52682,-7.30807 -4.25,-10.03125 -3.29116,-3.29116 -7.49297,-4.78125 -13.0625,-4.78125 z m 48.75,0 c -3.71581,0.18817 -6.88832,1.57073 -10.09375,4.21875 l 0.34375,-1.71875 0.375,-1.8125 -1.84375,0 -11.03125,0 -1.21875,0 -0.25,1.1875 -9.125,42.90625 -0.375,1.8125 1.84375,0 11.125,0 1.21875,0 0.25,-1.1875 5.46875,-25.75 c 1.08847,-5.07954 4.04114,-7.78125 7.90625,-7.78125 1.20288,0 2.06727,0.35814 2.625,0.875 0.55773,0.51686 0.875,1.21706 0.875,2.25 0,0.84569 -0.0734,1.47597 -0.21875,2.28125 -0.002,0.0109 0.002,0.0204 0,0.0312 l -5.875,27.46875 -0.375,1.8125 1.84375,0 11.125,0 1.21875,0 0.25,-1.1875 5.46875,-25.75 c 0.5458,-2.61985 1.60566,-4.56921 3,-5.84375 1.39434,-1.27454 3.13617,-1.9375 5.3125,-1.9375 1.20033,0 1.90282,0.29426 2.34375,0.71875 0.44093,0.42449 0.75,1.07903 0.75,2.21875 0,0.80932 -0.12786,1.96129 -0.34375,2.96875 l -5.71875,27 -0.375,1.8125 1.84375,0 11.09375,0 1.21875,0 0.25,-1.1875 6.125,-28.75 c 0.48331,-2.336 0.65625,-3.623 0.65625,-5.15625 0,-3.46611 -1.2003,-6.44884 -3.46875,-8.46875 -2.26845,-2.01991 -5.47846,-3.03125 -9.3125,-3.03125 -5.12301,0 -9.46021,1.88785 -13.5625,5.59375 -1.91345,-3.4396 -5.73652,-5.59375 -10.3125,-5.59375 -0.27361,0 -0.61477,-0.0211 -1.03125,0 z m 65.15625,0 c -6.53934,0 -12.21281,1.71568 -16,5.0625 -3.72637,3.29308 -6.15625,8.09004 -6.15625,12.625 0,2.59019 1.03334,4.95935 2.96875,6.8125 1.93541,1.85315 4.69483,3.27657 8.3125,4.46875 l 6.28125,2 c 2.46808,0.78352 3.90902,1.37647 4.5,1.78125 0.59098,0.40478 0.5,0.27468 0.5,0.90625 0,0.60027 -0.34551,1.20372 -1.5,1.8125 -1.15449,0.60878 -3.01419,1.03125 -5.25,1.03125 -2.56081,0 -4.78372,-0.6334 -5.875,-1.4375 -0.81767,-0.71023 -0.99733,-1.00119 -1.0625,-2.5 l -0.0625,-1.4375 -1.4375,0 -10.875,0 -1.21875,0 -0.25,1.21875 c -0.24132,1.20659 -0.34375,1.83765 -0.34375,2.65625 0,4.22216 2.61611,8.35148 6.5625,10.59375 l 0,-0.0312 c 3.38599,1.99686 7.41458,2.84375 12.5,2.84375 6.99119,0 12.83466,-1.68689 17,-4.84375 4.16534,-3.15686 6.5625,-7.84047 6.5625,-13.34375 0,-2.70719 -0.95782,-5.15427 -2.8125,-7.03125 -1.85468,-1.87698 -4.49818,-3.21406 -7.9375,-4.25 l -0.0312,0 -7.59375,-2.21875 c -0.0145,-0.004 -0.0168,0.004 -0.0312,0 -1.94898,-0.57539 -3.16106,-1.09389 -3.65625,-1.4375 -0.49886,-0.34616 -0.40625,-0.24181 -0.40625,-0.6875 0,-0.72123 0.28944,-1.24043 1.1875,-1.78125 0.89806,-0.54082 2.40755,-0.9375 4.3125,-0.9375 2.00234,0 3.48809,0.39581 4.34375,0.90625 0.85566,0.51044 1.125,0.96013 1.125,1.71875 0,0.28502 -0.0554,0.48376 -0.21875,1.21875 l -0.40625,1.8125 1.875,0 10.75,0 1.21875,0 0.25,-1.1875 c 0.33275,-1.49734 0.40625,-2.4046 0.40625,-3.34375 0,-3.9949 -1.7698,-7.42442 -4.875,-9.65625 -3.1052,-2.23183 -7.43608,-3.34375 -12.65625,-3.34375 z m -336.25,0.6875 0.09375,1.59375 2.9375,42.90625 0.09375,1.40625 1.40625,0 11.4375,0 0.96875,0 0.40625,-0.90625 10.40625,-23.8125 0.3125,23.25 0.0312,1.46875 1.46875,0 11.5,0 0.9375,0 0.40625,-0.84375 20.96875,-42.90625 1.0625,-2.15625 -2.40625,0 -11.5,0 -1,0 -0.375,0.90625 -10.0625,23.34375 0,-22.75 0,-1.5 -1.5,0 -11.4375,0 -1,0 -0.375,0.90625 -9.84375,23.4375 -0.3125,-22.875 L 94,815.125 l -1.46875,0 -11.53125,0 -1.59375,0 z m 82.5625,11.1875 c 2.28615,0 3.94294,1.04777 4.71875,2.71875 l 0.0312,0 c 0.45615,0.97745 0.55079,1.55818 0.5625,3.65625 l -13.875,0 c 0.42983,-1.16863 0.86549,-2.11737 1.46875,-2.90625 1.59472,-2.12631 4.39651,-3.46875 7.09375,-3.46875 z m 47.90625,0 c 1.72672,0 2.94821,0.62847 3.90625,1.90625 0.95804,1.27778 1.59375,3.30434 1.59375,5.96875 0,4.53249 -1.43659,8.83185 -3.59375,11.90625 -2.15716,3.0744 -4.94701,4.84375 -7.6875,4.84375 -1.68025,0 -2.93924,-0.63675 -3.90625,-1.875 -0.96701,-1.23825 -1.59375,-3.15241 -1.59375,-5.59375 0,-4.66307 1.41207,-9.07502 3.5625,-12.21875 2.15043,-3.14373 4.94349,-4.9375 7.71875,-4.9375 z"
           id="path4183" />
        <path
           style="font-size:79.40666199px;font-style:italic;font-variant:normal;font-weight:bold;font-stretch:normal;text-align:start;line-height:125%;writing-mode:lr-tb;text-anchor:start;fill:#000000;fill-opacity:1;stroke:none;font-family:Nimbus Sans L;-inkscape-font-specification:Nimbus Sans L Bold Italic"
           d="m 194.40625,801.625 -12.3125,57.90625 11.125,0 0.9375,-4.375 c 1.74694,4.20855 5.17975,6.1875 10.5,6.1875 12.22861,0 23.5625,-13.8815 23.5625,-28.96875 0,-9.92583 -5.4579,-16.4375 -13.875,-16.4375 -5.39965,0 -9.6142,1.96205 -13.1875,6.25 l 4.375,-20.5625 -11.125,0 z m 64.96875,0.40625 c -12.30802,0 -20.40418,7.47219 -22.46875,20.8125 l 10.65625,0 c 1.03229,-7.70244 4.58344,-11.90625 10.0625,-11.90625 4.28795,0 6.84375,2.37342 6.84375,6.34375 0,3.6527 -1.58143,7.45643 -4.28125,10.15625 -2.4616,2.62042 -5.1039,4.45588 -14.15625,10.09375 -11.03751,6.59074 -14.90827,11.51834 -17.6875,22 l 38.28125,0 2.0625,-9.9375 -23.84375,0 c 1.98517,-2.93804 4.30061,-4.70076 13.75,-10.65625 6.59074,-4.12914 9.52149,-6.42005 12.0625,-9.4375 3.33508,-3.97033 5.15625,-8.80989 5.15625,-13.8125 0,-8.57591 -6.11464,-13.65625 -16.4375,-13.65625 z m -96.0625,13.90625 c -6.19371,0 -12.54914,2.45283 -16.28125,6.34375 -5.08203,5.32024 -8.75,14.62184 -8.75,22.5625 0,9.84642 6.85543,16.5 16.78125,16.5 9.6082,0 17.60139,-5.09212 21.96875,-13.90625 l -10.9375,0 c -1.58813,3.01745 -5.09474,5 -8.90625,5 -4.52618,0 -7.53125,-2.91389 -7.53125,-7.28125 0,-0.71466 -0.0195,-1.37037 0.21875,-3.59375 l 28.84375,0 c 0.95288,-3.5733 1.40625,-6.8888 1.40625,-9.90625 0,-3.65271 -1.33911,-7.39137 -3.5625,-10.25 -2.85863,-3.5733 -7.45332,-5.46875 -13.25,-5.46875 z m 138.4375,0 c -7.46422,0 -13.3396,2.52863 -17.46875,7.53125 -4.68499,5.55846 -8,14.86262 -8,22.40625 0,3.97033 1.42774,7.84577 3.96875,10.625 2.85864,3.25567 7.21767,4.84375 13.09375,4.84375 10.24345,0 18.03993,-6.04702 21.375,-16.6875 l -10.65625,0 c -2.4616,5.63787 -5.08705,7.78125 -9.375,7.78125 -4.7644,0 -7.0625,-2.67719 -7.0625,-8.15625 0,-4.20854 1.03174,-8.90724 2.9375,-12.71875 2.22338,-4.68499 5.16389,-6.75 9.53125,-6.75 2.62042,0 4.59272,0.95746 5.625,2.625 0.63525,1.1911 0.79559,2.15315 0.875,5.25 l 10.65625,0 c 0.23822,-1.90576 0.3125,-2.64344 0.3125,-3.4375 0,-3.33508 -1.35089,-6.50714 -3.8125,-8.96875 -3.01745,-3.01745 -6.67976,-4.34375 -12,-4.34375 z m 48.8125,0 c -4.68006,0.237 -8.23282,2.28616 -12.625,7.125 l 1.34375,-6.4375 -11.03125,0 -9.125,42.90625 11.125,0 5.46875,-25.75 c 1.1911,-5.55847 4.76942,-8.96875 9.375,-8.96875 3.01745,0 5,1.84577 5,4.625 0,0.95288 -0.0912,1.72028 -0.25,2.59375 l -5.875,27.5 11.125,0 5.46875,-25.75 c 1.1911,-5.71728 4.77864,-8.96875 9.78125,-8.96875 2.93805,0 4.59375,1.57886 4.59375,4.4375 0,0.95287 -0.13678,2.16956 -0.375,3.28125 l -5.71875,27 11.09375,0 6.125,-28.75 c 0.47644,-2.30279 0.625,-3.41444 0.625,-4.84375 0,-6.27312 -4.13466,-10 -11.28125,-10 -5.39965,0 -9.66389,1.97383 -14.03125,6.5 -1.11169,-3.97033 -4.92054,-6.5 -9.84375,-6.5 -0.32259,0 -0.65675,-0.0158 -0.96875,0 z m 65.09375,0 c -6.27312,0 -11.58552,1.67005 -15,4.6875 -3.41448,3.01745 -5.65625,7.52967 -5.65625,11.5 0,4.44676 3.26222,7.54096 10.25,9.84375 l 6.28125,2 c 5.00262,1.58813 6.03125,2.29865 6.03125,4.125 0,2.54102 -3.4062,4.34375 -8.25,4.34375 -2.77923,0 -5.24127,-0.60705 -6.75,-1.71875 -1.11169,-0.95287 -1.60809,-1.8299 -1.6875,-3.65625 l -10.875,0 c -0.23822,1.1911 -0.3125,1.66034 -0.3125,2.375 0,3.57329 2.31861,7.29608 5.8125,9.28125 3.09686,1.82635 6.8268,2.625 11.75,2.625 13.49912,0 22.0625,-6.52346 22.0625,-16.6875 0,-4.7644 -3.09675,-7.85858 -9.6875,-9.84375 L 412,832.59375 c -4.04973,-1.1911 -5.15625,-1.97437 -5.15625,-3.5625 0,-2.54101 2.79145,-4.21875 7,-4.21875 4.36736,0 6.96875,1.58399 6.96875,4.125 0,0.47644 -0.0912,0.81659 -0.25,1.53125 l 10.75,0 c 0.31763,-1.42932 0.375,-2.15778 0.375,-3.03125 0,-7.14659 -6.02602,-11.5 -16.03125,-11.5 z M 81,816.625 l 2.9375,42.90625 11.4375,0 13.1875,-30.1875 0.40625,30.1875 11.5,0 20.96875,-42.90625 -11.5,0 -12.9375,30.03125 0,-30.03125 -11.4375,0 -12.625,30.03125 L 92.53125,816.625 81,816.625 z m 80.96875,8.1875 c 2.77923,0 5.06147,1.37037 6.09375,3.59375 0.55585,1.1911 0.71875,2.05274 0.71875,4.59375 l 0,1.1875 -17.46875,0 c 0.71466,-2.54101 1.34271,-3.96259 2.375,-5.3125 1.90575,-2.54101 5.10499,-4.0625 8.28125,-4.0625 z m 47.90625,0 c 4.28795,0 7,3.57832 7,9.375 0,9.6876 -6.03169,18.25 -12.78125,18.25 -4.20855,0 -7,-3.5691 -7,-8.96875 0,-9.92582 5.95228,-18.65625 12.78125,-18.65625 z"
           id="path3901" />
        <path
           style="font-size:79.40666199px;font-style:italic;font-variant:normal;font-weight:bold;font-stretch:normal;text-align:start;line-height:125%;writing-mode:lr-tb;text-anchor:start;fill:url(#linearGradient4360);fill-opacity:1;stroke:none;font-family:Nimbus Sans L;-inkscape-font-specification:Nimbus Sans L Bold Italic"
           d="M 194.40625,801.625 186,841.21875 c 3.74026,0.0522 7.47924,0.11005 11.21875,0.15625 0.76318,-9.02683 6.31309,-16.5625 12.65625,-16.5625 4.28796,0 7,3.57832 7,9.375 0,2.58833 -0.42737,5.08775 -1.1875,7.375 3.71283,0.0359 7.41294,0.064 11.125,0.0937 0.91625,-2.96349 1.40625,-6.09115 1.40625,-9.28125 0,-9.92582 -5.4579,-16.4375 -13.875,-16.4375 -5.39965,0 -9.6142,1.96204 -13.1875,6.25 l 4.375,-20.5625 -11.125,0 z m 64.96875,0.40625 c -12.30802,0 -20.40418,7.47219 -22.46875,20.8125 l 10.65625,0 c 1.03229,-7.70244 4.58345,-11.90625 10.0625,-11.90625 4.28796,0 6.84375,2.37342 6.84375,6.34375 0,3.6527 -1.58143,7.45643 -4.28125,10.15625 -2.4616,2.62042 -5.1039,4.45588 -14.15625,10.09375 -2.44524,1.46011 -4.50314,2.84376 -6.3125,4.21875 4.80858,0.029 9.63027,0.0442 14.4375,0.0625 1.32582,-0.86443 2.64296,-1.74398 4.4375,-2.875 6.59075,-4.12914 9.52149,-6.42005 12.0625,-9.4375 3.33508,-3.97033 5.15625,-8.80989 5.15625,-13.8125 0,-8.57591 -6.11464,-13.65625 -16.4375,-13.65625 z m -96.0625,13.90625 c -6.19371,0 -12.54914,2.45283 -16.28125,6.34375 -4.16121,4.35626 -7.38218,11.36558 -8.40625,18.125 13.39865,0.2733 26.79797,0.51838 40.1875,0.71875 0.87554,-3.40615 1.3125,-6.57635 1.3125,-9.46875 0,-3.6527 -1.33912,-7.39136 -3.5625,-10.25 -2.85864,-3.5733 -7.45332,-5.46875 -13.25,-5.46875 z m 138.4375,0 c -7.46422,0 -13.33961,2.52864 -17.46875,7.53125 -3.88614,4.61067 -6.82321,11.78687 -7.71875,18.40625 3.72928,8.9e-4 7.45906,-0.0253 11.1875,-0.0312 0.31296,-3.51654 1.26863,-7.1935 2.8125,-10.28125 2.22338,-4.68499 5.16389,-6.75 9.53125,-6.75 2.62042,0 4.59271,0.95746 5.625,2.625 0.63525,1.1911 0.79559,2.15314 0.875,5.25 l 10.65625,0 c 0.23822,-1.90576 0.3125,-2.64343 0.3125,-3.4375 0,-3.33508 -1.3509,-6.50715 -3.8125,-8.96875 -3.01745,-3.01745 -6.67976,-4.34375 -12,-4.34375 z m 48.8125,0 c -4.68007,0.237 -8.23282,2.28616 -12.625,7.125 l 1.34375,-6.4375 -11.03125,0 -5.34375,25.0625 c 3.72113,-0.0279 7.43602,-0.0586 11.15625,-0.0937 l 1.65625,-7.8125 c 1.1911,-5.55846 4.76942,-8.96875 9.375,-8.96875 3.01745,0 5,1.84577 5,4.625 0,0.95288 -0.0912,1.72028 -0.25,2.59375 l -2,9.40625 c 3.70862,-0.044 7.4173,-0.0736 11.125,-0.125 l 1.59375,-7.53125 c 1.1911,-5.71727 4.77864,-8.96875 9.78125,-8.96875 2.93804,0 4.59375,1.57886 4.59375,4.4375 0,0.95288 -0.13678,2.16956 -0.375,3.28125 l -1.8125,8.5937 c 3.72209,-0.0609 7.43512,-0.15015 11.15625,-0.21875 l 2.15625,-10.125 c 0.47644,-2.30279 0.625,-3.41443 0.625,-4.84375 0,-6.27312 -4.13466,-10 -11.28125,-10 -5.39965,0 -9.66389,1.97382 -14.03125,6.5 -1.11169,-3.97033 -4.92054,-6.5 -9.84375,-6.5 -0.32259,0 -0.65675,-0.0158 -0.96875,0 z m 65.09375,0 c -6.27312,0 -11.58552,1.67005 -15,4.6875 -3.41448,3.01745 -5.65625,7.52967 -5.65625,11.5 0,3.58868 2.13374,6.31505 6.625,8.4375 8.77856,-0.19114 17.57077,-0.42054 26.34375,-0.65625 -1.49511,-2.21687 -4.25881,-3.86335 -8.34375,-5.09375 L 412,832.59375 c -4.04974,-1.1911 -5.15625,-1.97437 -5.15625,-3.5625 0,-2.54101 2.79145,-4.21875 7,-4.21875 4.36736,0 6.96875,1.58399 6.96875,4.125 0,0.47644 -0.0912,0.81659 -0.25,1.53125 l 10.75,0 c 0.31763,-1.42932 0.375,-2.15778 0.375,-3.03125 0,-7.14659 -6.02602,-11.5 -16.03125,-11.5 z M 81,816.625 l 1.53125,22.40625 c 3.438717,0.0942 6.87431,0.22259 10.3125,0.3125 L 92.53125,816.625 81,816.625 z m 24.5625,0 -9.59375,22.78125 c 2.69815,0.0695 5.39594,0.12064 8.09375,0.1875 l 4.5,-10.25 0.125,10.375 c 2.77049,0.0671 5.54237,0.12331 8.3125,0.1875 l 0,-23.28125 -11.4375,0 z m 24.375,0 -10.0625,23.34375 c 3.34293,0.0762 6.68886,0.17804 10.03125,0.25 l 11.53125,-23.59375 -11.5,0 z m 32.03125,8.1875 c 2.77923,0 5.06146,1.37037 6.09375,3.59375 0.55585,1.1911 0.71875,2.05274 0.71875,4.59375 l 0,1.1875 -17.46875,0 c 0.71466,-2.54101 1.34271,-3.96259 2.375,-5.3125 1.90576,-2.54101 5.10499,-4.0625 8.28125,-4.0625 z"
           id="path3915" />
      </g>
    </g>
  </g>
</svg>
